<?xml version="1.0" encoding="UTF-8" standalone="no"?>
<!-- Created with Inkscape (http://www.inkscape.org/) -->
<svg
   xmlns:svg="http://www.w3.org/2000/svg"
   xmlns="http://www.w3.org/2000/svg"
   version="1.0"
   x="0.0000000"
   y="0.0000000"
   width="1000.0000"
   height="375.00000"
   id="svg1306">
  <defs
     id="defs1308">
    <marker
       markerUnits="strokeWidth"
       refX="10.000000"
       refY="5.0000000"
       markerWidth="4.0000000"
       markerHeight="3.0000000"
       orient="auto"
       viewBox="0 0 10 10"
       id="ArrowStart">
      <path
         d="M 10.000000,0.0000000 L 0.0000000,5.0000000 L 10.000000,10.000000 L 10.000000,0.0000000 z "
         id="path2282" />
    </marker>
    <marker
       markerUnits="strokeWidth"
       refX="0.0000000"
       refY="5.0000000"
       markerWidth="4.0000000"
       markerHeight="3.0000000"
       orient="auto"
       viewBox="0 0 10 10"
       id="ArrowEnd">
      <path
         d="M 0.0000000,0.0000000 L 10.000000,5.0000000 L 0.0000000,10.000000 L 0.0000000,0.0000000 z "
         id="path2279" />
    </marker>
  </defs>
  <g
     id="layer1">
    <g
       transform="translate(-11.03565,-22.37801)"
       id="g5171">
      <g
         transform="matrix(0.728410,0.000000,0.000000,0.728410,-198.3278,61.05755)"
         style="fill:#fffdf3;fill-opacity:1.0000000;stroke:#ffe490;stroke-opacity:1.0000000"
         id="g2344">
        <path
           d="M 370.12530,38.615790 L 375.49420,38.794790 L 376.21000,40.584390 L 380.32620,40.584390 L 381.75790,39.331690 L 386.59000,40.047490 L 386.76890,43.089890 L 385.69510,43.626790 L 385.51620,47.206090 L 388.37960,49.532590 L 388.37960,52.217090 L 390.16920,52.217090 L 390.52720,50.785390 L 397.86450,51.501190 L 407.34950,53.648790 L 409.67650,55.438390 L 414.32950,55.259490 L 418.08750,51.680190 L 421.48750,50.248490 L 418.26650,49.353690 L 416.47650,47.384990 L 419.16150,44.700590 L 420.05650,40.942290 L 425.42550,37.184090 L 430.61550,34.499690 L 438.84750,32.352090 L 445.29050,28.056990 L 450.12250,21.256290 L 452.09050,13.202990 L 451.37450,3.0019900 L 453.16450,-2.9038100 L 457.81750,-5.7672100 L 463.54450,-7.0199400 L 471.95550,-11.494070 L 474.64050,-5.9461100 L 473.74550,-2.1879100 L 478.39850,1.3913900 L 481.97750,3.3598900 L 486.09350,-0.57721000 L 489.13650,2.8230900 L 489.67350,6.4023900 L 491.99950,9.8025900 L 497.18950,9.0867900 L 499.87450,12.666090 L 500.41050,14.992590 L 506.13750,14.634690 L 509.18050,14.276790 L 511.50650,16.424290 L 510.61150,21.614290 L 512.75950,23.224890 L 511.68550,25.909390 L 513.83350,27.519990 L 520.99150,27.341090 L 524.03450,24.477690 L 527.07650,18.750790 L 527.07650,26.625290 L 528.86650,31.994190 L 538.53050,35.573390 L 543.18350,40.942290 L 546.94150,40.763390 L 549.80450,38.257890 L 552.84750,41.658190 L 559.64750,40.942290 L 562.86950,39.152690 L 566.80650,40.942290 L 573.60750,50.069490 L 577.36550,50.427490 L 577.18650,48.458790 L 581.12350,47.921990 L 583.80850,50.785390 L 588.10350,50.248490 L 589.17650,48.458790 L 592.04050,48.816790 L 594.72450,52.038090 L 602.77850,50.606390 L 609.75750,52.753990 L 608.50550,59.733490 L 602.77850,65.639390 L 599.73550,85.683090 L 600.80950,92.663090 L 599.02050,98.390090 L 600.63050,103.04309 L 601.16750,107.15909 L 598.30450,110.73809 L 592.75650,110.91709 L 592.39850,108.41209 L 590.42950,108.94909 L 586.13450,112.52809 L 586.13450,115.39109 L 589.89250,114.49609 L 589.17650,117.18109 L 581.48150,129.52909 L 577.18650,130.24509 L 576.64950,138.65709 L 570.02750,144.92009 L 571.10150,146.88909 L 569.31250,149.75209 L 569.31250,152.25809 L 572.17550,154.04709 L 570.56450,157.62709 L 566.80650,159.41609 L 568.95450,162.28009 L 573.60750,161.02709 L 575.75450,158.70009 L 575.75450,156.73209 L 573.78650,154.76309 L 576.11250,152.79509 L 580.40750,152.43709 L 585.06050,149.21509 L 590.07150,154.76309 L 587.92450,159.59509 L 590.42950,159.77409 L 595.44050,166.75409 L 593.11450,170.33309 L 590.07150,171.76509 L 590.25050,175.16509 L 592.75650,177.13409 L 595.61950,177.49209 L 595.97750,181.96609 L 600.98850,185.72409 L 600.98850,192.16709 L 594.72450,196.64109 L 589.35550,196.64109 L 589.53450,200.75709 L 592.39850,202.36809 L 593.29350,205.76809 L 599.91450,207.73709 L 599.91450,216.14809 L 596.33550,219.01109 L 600.09350,221.87509 L 597.76750,222.77009 L 597.76750,225.27509 L 603.49450,229.57009 L 607.43150,229.57009 L 609.39950,231.18109 L 618.34850,232.07609 L 620.31650,228.49609 L 622.10650,233.32809 L 620.85350,237.62309 L 618.16950,241.38209 L 619.95850,244.78209 L 614.94750,247.46709 L 610.65250,249.43509 L 608.68450,254.08809 L 605.64150,255.69909 L 603.31550,260.35209 L 598.84150,262.85709 L 598.30450,269.83709 L 590.96650,270.91109 L 587.20850,274.66909 L 579.87050,275.92209 L 571.63850,274.49009 L 561.79550,271.80609 L 561.79550,267.86809 L 557.85850,267.68909 L 555.53150,269.12109 L 541.39350,268.76309 L 539.24650,264.82609 L 535.12950,266.07909 L 528.15050,265.72109 L 525.28650,262.67809 L 511.68550,273.05809 L 508.64350,273.59509 L 503.09550,278.78509 L 499.69550,286.12309 L 499.87450,295.60809 L 501.66350,303.12409 L 500.05350,304.01909 L 496.29450,304.73509 L 489.85250,310.28309 L 484.66250,309.92509 L 480.90350,307.41909 L 476.07150,307.95609 L 475.35550,310.10409 L 470.88150,310.10409 L 469.80850,306.88209 L 464.43950,304.19809 L 464.26050,301.15609 L 457.81750,299.00809 L 455.84850,301.15609 L 453.52250,296.68209 L 447.97450,297.03909 L 446.18450,294.17609 L 440.63750,293.46009 L 433.47850,292.20709 L 434.91050,297.93409 L 425.24650,298.65009 L 413.61350,297.39709 L 413.61350,294.71309 L 406.63350,292.74409 L 400.19150,294.53409 L 395.00150,287.73309 L 386.76890,287.73309 L 381.40000,284.33309 L 380.50520,282.18609 L 379.61040,282.00709 L 378.35760,284.87009 L 376.21000,284.51209 L 376.21000,282.18609 L 377.64180,281.29109 L 377.46280,275.56409 L 368.33560,274.13209 L 366.36700,271.26909 L 370.84110,269.83709 L 375.67320,264.11009 L 377.10490,256.59409 L 380.32620,246.03509 L 381.93690,234.58109 L 383.36860,223.12709 L 387.30580,224.02209 L 383.72650,219.36909 L 384.62130,206.12609 L 385.51620,193.77709 L 388.02170,192.34609 L 390.88510,194.85109 L 395.53850,201.11509 L 398.22250,207.91609 L 397.32750,196.64109 L 391.42150,190.55609 L 383.72650,186.44009 L 384.26340,180.71309 L 379.96830,176.23909 L 380.86310,172.83909 L 383.72650,175.34409 L 385.69510,178.56509 L 388.37960,176.77609 L 388.02170,172.12309 L 384.62130,168.72209 L 380.14730,168.72209 L 377.46280,171.04909 L 374.42040,168.36409 L 376.74690,164.60609 L 380.32620,166.39609 L 385.15820,166.39609 L 383.54760,163.71109 L 378.17870,161.02709 L 372.80970,158.87909 L 368.51460,155.30009 L 368.15670,149.93109 L 362.42980,144.56209 L 362.96670,140.98309 L 365.65120,136.68809 L 364.04050,133.64609 L 360.81920,133.10909 L 359.38740,128.63509 L 354.37650,128.99209 L 352.76580,125.77109 L 353.66060,119.68609 L 351.51300,117.89709 L 345.60720,118.97009 L 343.63860,116.82309 L 341.49110,116.82309 L 339.70140,118.97009 L 337.19590,117.89709 L 337.37490,113.78109 L 335.04840,111.27509 L 332.90080,111.81209 L 328.96360,114.49609 L 326.45810,113.95909 L 326.10020,111.27509 L 329.85840,110.91709 L 326.45810,107.51709 L 320.01540,105.72709 L 318.40470,103.93809 L 315.54130,104.11709 L 313.03580,106.98009 L 309.45650,106.62209 L 307.13000,102.50609 L 307.13000,98.748090 L 302.29800,97.316090 L 300.50836,96.779090 L 300.86628,94.810090 L 302.65590,93.379090 L 308.56170,93.200090 L 309.99340,94.273090 L 312.32000,94.095090 L 312.49890,91.231090 L 309.81450,90.515090 L 306.77210,91.052090 L 304.62450,90.515090 L 304.98250,87.831090 L 306.95110,87.652090 L 312.14100,88.189090 L 312.14100,86.041090 L 308.74070,84.609090 L 306.41420,85.862090 L 301.94010,86.220090 L 299.79250,81.746090 L 301.58210,77.808890 L 306.95110,75.840290 L 313.39370,74.408590 L 319.29960,73.692690 L 323.77370,75.303390 L 324.13160,73.513790 L 330.93220,73.513790 L 332.00600,69.218690 L 336.12220,69.039690 L 342.92280,69.934490 L 346.50210,74.587490 L 349.18650,79.240590 L 351.33410,81.746090 L 354.91340,81.030190 L 357.41880,77.271990 L 364.21950,79.419590 L 365.47220,77.450990 L 371.73600,76.377190 L 373.16770,78.703690 L 378.17870,78.882690 L 380.50520,76.377190 L 378.71550,73.513790 L 377.99970,58.838790 L 372.63080,50.785390 L 371.37800,45.058490 L 371.19910,41.300290 L 369.94630,38.615790 L 369.94630,38.615790"
           style="fill:#fffdf3;fill-opacity:1.0000000;stroke:#ffe490;stroke-width:1.0000000;stroke-opacity:1.0000000"
           id="path2286" />
        <path
           d="M 295.16421,79.276490 C 295.16421,80.147490 294.47923,80.854590 293.63535,80.854590 C 292.79148,80.854590 292.10651,80.147490 292.10651,79.276490 C 292.10651,78.405390 292.79148,77.698290 293.63535,77.698290 C 294.47923,77.698290 295.16421,78.405390 295.16421,79.276490 z "
           style="fill:#fffdf3;fill-opacity:1.0000000;stroke:#ffe490;stroke-width:1.0000000;stroke-opacity:1.0000000"
           id="path2290" />
        <path
           d="M 335.30880,121.98609 L 335.60470,125.53609 L 340.93110,125.93109 L 339.55020,123.46509 L 337.57740,121.88709 L 335.40750,122.57709"
           style="fill:#fffdf3;fill-opacity:1.0000000;stroke:#ffe490;stroke-width:1.0000000;stroke-opacity:1.0000000"
           id="path2292" />
        <path
           d="M 332.64570,118.33609 L 332.74430,119.52009 L 334.91430,120.70309 L 336.39380,119.52009 L 335.01290,118.13909 L 332.74430,118.43509"
           style="fill:#fffdf3;fill-opacity:1.0000000;stroke:#ffe490;stroke-width:1.0000000;stroke-opacity:1.0000000"
           id="path2294" />
        <path
           d="M 341.12830,121.29509 L 344.28470,124.84609 L 345.86280,124.55009 L 343.19970,121.09809 L 341.22700,121.29509"
           style="fill:#fffdf3;fill-opacity:1.0000000;stroke:#ffe490;stroke-width:1.0000000;stroke-opacity:1.0000000"
           id="path2296" />
        <path
           d="M 357.79770,135.99209 L 358.09360,138.65509 L 361.54590,139.64109 L 361.84180,136.68209 L 360.26360,135.10409 L 357.60040,135.79409"
           style="fill:#fffdf3;fill-opacity:1.0000000;stroke:#ffe490;stroke-width:1.0000000;stroke-opacity:1.0000000"
           id="path2298" />
        <path
           d="M 354.54270,146.15109 L 355.03590,148.51809 L 358.78410,148.61709 L 357.20590,146.05309 L 354.44410,146.34809"
           style="fill:#fffdf3;fill-opacity:1.0000000;stroke:#ffe490;stroke-width:1.0000000;stroke-opacity:1.0000000"
           id="path2300" />
        <path
           d="M 361.54590,54.716190 L 361.94040,56.787590 L 365.49130,59.746690 L 370.02850,58.760290 L 368.74630,55.603990 L 364.89950,52.447590 L 361.54590,54.222990"
           style="fill:#fffdf3;fill-opacity:1.0000000;stroke:#ffe490;stroke-width:1.0000000;stroke-opacity:1.0000000"
           id="path2302" />
        <path
           d="M 352.17550,44.162290 L 352.17550,48.600890 L 353.65500,49.488490 L 356.91000,49.587190 L 359.08000,46.430890 L 354.93730,44.852690 L 352.37280,44.063590"
           style="fill:#fffdf3;fill-opacity:1.0000000;stroke:#ffe490;stroke-width:1.0000000;stroke-opacity:1.0000000"
           id="path2304" />
        <path
           d="M 364.50490,37.060490 L 364.11040,41.301790 L 366.28040,41.005890 L 365.88580,36.961890 L 364.60360,36.764590"
           style="fill:#fffdf3;fill-opacity:1.0000000;stroke:#ffe490;stroke-width:1.0000000;stroke-opacity:1.0000000"
           id="path2306" />
        <path
           d="M 353.35910,53.828490 C 353.35910,54.372890 352.91720,54.814790 352.37280,54.814790 C 351.82830,54.814790 351.38640,54.372890 351.38640,53.828490 C 351.38640,53.283990 351.82830,52.842090 352.37280,52.842090 C 352.91720,52.842090 353.35910,53.283990 353.35910,53.828490 z "
           style="fill:#fffdf3;fill-opacity:1.0000000;stroke:#ffe490;stroke-width:1.0000000;stroke-opacity:1.0000000"
           id="path2308" />
        <path
           d="M 366.13120,154.35409 C 366.13120,155.11209 365.70730,155.72609 365.18490,155.72609 C 364.66260,155.72609 364.23870,155.11209 364.23870,154.35409 C 364.23870,153.59709 364.66260,152.98209 365.18490,152.98209 C 365.70730,152.98209 366.13120,153.59709 366.13120,154.35409 z "
           style="fill:#fffdf3;fill-opacity:1.0000000;stroke:#ffe490;stroke-width:1.0000000;stroke-opacity:1.0000000"
           id="path2310" />
      </g>
      <path
         d="M 145.16129,69.397284 L 143.46350,118.63328 L 112.90323,101.65535 L 66.213922,137.30900 L 85.738540,173.81154 L 91.680815,233.23430 L 126.48557,188.24278 L 172.32598,225.59423 L 152.80135,265.49236 L 229.20204,237.47878 L 222.41087,117.78438 L 194.39728,161.07810 L 187.60611,105.05094 L 145.16129,69.397284 z "
         style="fill:none;fill-opacity:0.75000000;fill-rule:evenodd;stroke:#323adb;stroke-width:0.62500000;stroke-linecap:butt;stroke-linejoin:miter;stroke-miterlimit:4.0000000;stroke-dasharray:none;stroke-opacity:1.0000000"
         id="path4987" />
      <g
         transform="matrix(0.928420,0.000000,0.000000,0.928420,5.008136,4.346555)"
         style="fill:#ffe1a2;fill-opacity:1.0000000;stroke:#b66600;stroke-opacity:1.0000000"
         id="g4065">
        <path
           d="M 124.49447 112.39664 A 9.2824831 9.2824831 0 1 1  105.92951,112.39664 A 9.2824831 9.2824831 0 1 1  124.49447 112.39664 z"
           transform="matrix(0.647008,0.000000,0.000000,0.647008,-7.571900,70.74621)"
           style="fill:#ffe1a2;fill-opacity:1.0000000;stroke:#b66600;stroke-width:1.0000000;stroke-miterlimit:4.0000000;stroke-dasharray:none;stroke-dashoffset:0.0000000;stroke-opacity:1.0000000"
           id="path1314" />
        <path
           d="M 124.49447 112.39664 A 9.2824831 9.2824831 0 1 1  105.92951,112.39664 A 9.2824831 9.2824831 0 1 1  124.49447 112.39664 z"
           transform="matrix(0.647008,0.000000,0.000000,0.647008,43.83780,31.80908)"
           style="fill:#ffe1a2;fill-opacity:1.0000000;stroke:#b66600;stroke-width:1.0000000;stroke-miterlimit:4.0000000;stroke-dasharray:none;stroke-dashoffset:0.0000000;stroke-opacity:1.0000000"
           id="path2044" />
        <path
           d="M 124.49447 112.39664 A 9.2824831 9.2824831 0 1 1  105.92951,112.39664 A 9.2824831 9.2824831 0 1 1  124.49447 112.39664 z"
           transform="matrix(0.647008,0.000000,0.000000,0.647008,13.97620,108.4361)"
           style="fill:#ffe1a2;fill-opacity:1.0000000;stroke:#b66600;stroke-width:1.0000000;stroke-miterlimit:4.0000000;stroke-dasharray:none;stroke-dashoffset:0.0000000;stroke-opacity:1.0000000"
           id="path2046" />
        <path
           d="M 124.49447 112.39664 A 9.2824831 9.2824831 0 1 1  105.92951,112.39664 A 9.2824831 9.2824831 0 1 1  124.49447 112.39664 z"
           transform="matrix(0.647008,0.000000,0.000000,0.647008,55.48410,124.7870)"
           style="fill:#ffe1a2;fill-opacity:1.0000000;stroke:#b66600;stroke-width:1.0000000;stroke-miterlimit:4.0000000;stroke-dasharray:none;stroke-dashoffset:0.0000000;stroke-opacity:1.0000000"
           id="path2048" />
        <path
           d="M 124.49447 112.39664 A 9.2824831 9.2824831 0 1 1  105.92951,112.39664 A 9.2824831 9.2824831 0 1 1  124.49447 112.39664 z"
           transform="matrix(0.647008,0.000000,0.000000,0.647008,19.06490,170.6457)"
           style="fill:#ffe1a2;fill-opacity:1.0000000;stroke:#b66600;stroke-width:1.0000000;stroke-miterlimit:4.0000000;stroke-dasharray:none;stroke-dashoffset:0.0000000;stroke-opacity:1.0000000"
           id="path2050" />
        <path
           d="M 124.49447 112.39664 A 9.2824831 9.2824831 0 1 1  105.92951,112.39664 A 9.2824831 9.2824831 0 1 1  124.49447 112.39664 z"
           transform="matrix(0.647008,0.000000,0.000000,0.647008,86.40270,210.0580)"
           style="fill:#ffe1a2;fill-opacity:1.0000000;stroke:#b66600;stroke-width:1.0000000;stroke-miterlimit:4.0000000;stroke-dasharray:none;stroke-dashoffset:0.0000000;stroke-opacity:1.0000000"
           id="path2052" />
        <path
           d="M 124.49447 112.39664 A 9.2824831 9.2824831 0 1 1  105.92951,112.39664 A 9.2824831 9.2824831 0 1 1  124.49447 112.39664 z"
           transform="matrix(0.647008,0.000000,0.000000,0.647008,105.9988,165.3974)"
           style="fill:#ffe1a2;fill-opacity:1.0000000;stroke:#b66600;stroke-width:1.0000000;stroke-miterlimit:4.0000000;stroke-dasharray:none;stroke-dashoffset:0.0000000;stroke-opacity:1.0000000"
           id="path2054" />
        <path
           d="M 124.49447 112.39664 A 9.2824831 9.2824831 0 1 1  105.92951,112.39664 A 9.2824831 9.2824831 0 1 1  124.49447 112.39664 z"
           transform="matrix(0.647008,0.000000,0.000000,0.647008,167.1468,178.1308)"
           style="fill:#ffe1a2;fill-opacity:1.0000000;stroke:#b66600;stroke-width:1.0000000;stroke-miterlimit:4.0000000;stroke-dasharray:none;stroke-dashoffset:0.0000000;stroke-opacity:1.0000000"
           id="path2056" />
        <path
           d="M 124.49447 112.39664 A 9.2824831 9.2824831 0 1 1  105.92951,112.39664 A 9.2824831 9.2824831 0 1 1  124.49447 112.39664 z"
           transform="matrix(0.647008,0.000000,0.000000,0.647008,128.8402,97.55084)"
           style="fill:#ffe1a2;fill-opacity:1.0000000;stroke:#b66600;stroke-width:1.0000000;stroke-miterlimit:4.0000000;stroke-dasharray:none;stroke-dashoffset:0.0000000;stroke-opacity:1.0000000"
           id="path2058" />
        <path
           d="M 124.49447 112.39664 A 9.2824831 9.2824831 0 1 1  105.92951,112.39664 A 9.2824831 9.2824831 0 1 1  124.49447 112.39664 z"
           transform="matrix(0.647008,0.000000,0.000000,0.647008,159.2107,48.24337)"
           style="fill:#ffe1a2;fill-opacity:1.0000000;stroke:#b66600;stroke-width:1.0000000;stroke-miterlimit:4.0000000;stroke-dasharray:none;stroke-dashoffset:0.0000000;stroke-opacity:1.0000000"
           id="path2060" />
        <path
           d="M 124.49447 112.39664 A 9.2824831 9.2824831 0 1 1  105.92951,112.39664 A 9.2824831 9.2824831 0 1 1  124.49447 112.39664 z"
           transform="matrix(0.647008,0.000000,0.000000,0.647008,121.6329,34.80221)"
           style="fill:#ffe1a2;fill-opacity:1.0000000;stroke:#b66600;stroke-width:1.0000000;stroke-miterlimit:4.0000000;stroke-dasharray:none;stroke-dashoffset:0.0000000;stroke-opacity:1.0000000"
           id="path2062" />
        <path
           d="M 124.49447 112.39664 A 9.2824831 9.2824831 0 1 1  105.92951,112.39664 A 9.2824831 9.2824831 0 1 1  124.49447 112.39664 z"
           transform="matrix(0.647008,0.000000,0.000000,0.647008,74.37240,49.14086)"
           style="fill:#ffe1a2;fill-opacity:1.0000000;stroke:#b66600;stroke-width:1.0000000;stroke-miterlimit:4.0000000;stroke-dasharray:none;stroke-dashoffset:0.0000000;stroke-opacity:1.0000000"
           id="path2064" />
        <path
           d="M 124.49447 112.39664 A 9.2824831 9.2824831 0 1 1  105.92951,112.39664 A 9.2824831 9.2824831 0 1 1  124.49447 112.39664 z"
           transform="matrix(0.647008,0.000000,0.000000,0.647008,76.27830,-2.315410)"
           style="fill:#ffe1a2;fill-opacity:1.0000000;stroke:#b66600;stroke-width:1.0000000;stroke-miterlimit:4.0000000;stroke-dasharray:none;stroke-dashoffset:0.0000000;stroke-opacity:1.0000000"
           id="path2066" />
      </g>
    </g>
    <g
       transform="translate(-8.907283,-15.85220)"
       id="g5201">
      <g
         transform="matrix(0.728410,0.000000,0.000000,0.728410,50.35050,54.53174)"
         style="fill:#fffdf3;fill-opacity:1.0000000;stroke:#ffe490;stroke-opacity:1.0000000"
         id="g4818">
        <path
           d="M 370.12530,38.615790 L 375.49420,38.794790 L 376.21000,40.584390 L 380.32620,40.584390 L 381.75790,39.331690 L 386.59000,40.047490 L 386.76890,43.089890 L 385.69510,43.626790 L 385.51620,47.206090 L 388.37960,49.532590 L 388.37960,52.217090 L 390.16920,52.217090 L 390.52720,50.785390 L 397.86450,51.501190 L 407.34950,53.648790 L 409.67650,55.438390 L 414.32950,55.259490 L 418.08750,51.680190 L 421.48750,50.248490 L 418.26650,49.353690 L 416.47650,47.384990 L 419.16150,44.700590 L 420.05650,40.942290 L 425.42550,37.184090 L 430.61550,34.499690 L 438.84750,32.352090 L 445.29050,28.056990 L 450.12250,21.256290 L 452.09050,13.202990 L 451.37450,3.0019900 L 453.16450,-2.9038100 L 457.81750,-5.7672100 L 463.54450,-7.0199400 L 471.95550,-11.494070 L 474.64050,-5.9461100 L 473.74550,-2.1879100 L 478.39850,1.3913900 L 481.97750,3.3598900 L 486.09350,-0.57721000 L 489.13650,2.8230900 L 489.67350,6.4023900 L 491.99950,9.8025900 L 497.18950,9.0867900 L 499.87450,12.666090 L 500.41050,14.992590 L 506.13750,14.634690 L 509.18050,14.276790 L 511.50650,16.424290 L 510.61150,21.614290 L 512.75950,23.224890 L 511.68550,25.909390 L 513.83350,27.519990 L 520.99150,27.341090 L 524.03450,24.477690 L 527.07650,18.750790 L 527.07650,26.625290 L 528.86650,31.994190 L 538.53050,35.573390 L 543.18350,40.942290 L 546.94150,40.763390 L 549.80450,38.257890 L 552.84750,41.658190 L 559.64750,40.942290 L 562.86950,39.152690 L 566.80650,40.942290 L 573.60750,50.069490 L 577.36550,50.427490 L 577.18650,48.458790 L 581.12350,47.921990 L 583.80850,50.785390 L 588.10350,50.248490 L 589.17650,48.458790 L 592.04050,48.816790 L 594.72450,52.038090 L 602.77850,50.606390 L 609.75750,52.753990 L 608.50550,59.733490 L 602.77850,65.639390 L 599.73550,85.683090 L 600.80950,92.663090 L 599.02050,98.390090 L 600.63050,103.04309 L 601.16750,107.15909 L 598.30450,110.73809 L 592.75650,110.91709 L 592.39850,108.41209 L 590.42950,108.94909 L 586.13450,112.52809 L 586.13450,115.39109 L 589.89250,114.49609 L 589.17650,117.18109 L 581.48150,129.52909 L 577.18650,130.24509 L 576.64950,138.65709 L 570.02750,144.92009 L 571.10150,146.88909 L 569.31250,149.75209 L 569.31250,152.25809 L 572.17550,154.04709 L 570.56450,157.62709 L 566.80650,159.41609 L 568.95450,162.28009 L 573.60750,161.02709 L 575.75450,158.70009 L 575.75450,156.73209 L 573.78650,154.76309 L 576.11250,152.79509 L 580.40750,152.43709 L 585.06050,149.21509 L 590.07150,154.76309 L 587.92450,159.59509 L 590.42950,159.77409 L 595.44050,166.75409 L 593.11450,170.33309 L 590.07150,171.76509 L 590.25050,175.16509 L 592.75650,177.13409 L 595.61950,177.49209 L 595.97750,181.96609 L 600.98850,185.72409 L 600.98850,192.16709 L 594.72450,196.64109 L 589.35550,196.64109 L 589.53450,200.75709 L 592.39850,202.36809 L 593.29350,205.76809 L 599.91450,207.73709 L 599.91450,216.14809 L 596.33550,219.01109 L 600.09350,221.87509 L 597.76750,222.77009 L 597.76750,225.27509 L 603.49450,229.57009 L 607.43150,229.57009 L 609.39950,231.18109 L 618.34850,232.07609 L 620.31650,228.49609 L 622.10650,233.32809 L 620.85350,237.62309 L 618.16950,241.38209 L 619.95850,244.78209 L 614.94750,247.46709 L 610.65250,249.43509 L 608.68450,254.08809 L 605.64150,255.69909 L 603.31550,260.35209 L 598.84150,262.85709 L 598.30450,269.83709 L 590.96650,270.91109 L 587.20850,274.66909 L 579.87050,275.92209 L 571.63850,274.49009 L 561.79550,271.80609 L 561.79550,267.86809 L 557.85850,267.68909 L 555.53150,269.12109 L 541.39350,268.76309 L 539.24650,264.82609 L 535.12950,266.07909 L 528.15050,265.72109 L 525.28650,262.67809 L 511.68550,273.05809 L 508.64350,273.59509 L 503.09550,278.78509 L 499.69550,286.12309 L 499.87450,295.60809 L 501.66350,303.12409 L 500.05350,304.01909 L 496.29450,304.73509 L 489.85250,310.28309 L 484.66250,309.92509 L 480.90350,307.41909 L 476.07150,307.95609 L 475.35550,310.10409 L 470.88150,310.10409 L 469.80850,306.88209 L 464.43950,304.19809 L 464.26050,301.15609 L 457.81750,299.00809 L 455.84850,301.15609 L 453.52250,296.68209 L 447.97450,297.03909 L 446.18450,294.17609 L 440.63750,293.46009 L 433.47850,292.20709 L 434.91050,297.93409 L 425.24650,298.65009 L 413.61350,297.39709 L 413.61350,294.71309 L 406.63350,292.74409 L 400.19150,294.53409 L 395.00150,287.73309 L 386.76890,287.73309 L 381.40000,284.33309 L 380.50520,282.18609 L 379.61040,282.00709 L 378.35760,284.87009 L 376.21000,284.51209 L 376.21000,282.18609 L 377.64180,281.29109 L 377.46280,275.56409 L 368.33560,274.13209 L 366.36700,271.26909 L 370.84110,269.83709 L 375.67320,264.11009 L 377.10490,256.59409 L 380.32620,246.03509 L 381.93690,234.58109 L 383.36860,223.12709 L 387.30580,224.02209 L 383.72650,219.36909 L 384.62130,206.12609 L 385.51620,193.77709 L 388.02170,192.34609 L 390.88510,194.85109 L 395.53850,201.11509 L 398.22250,207.91609 L 397.32750,196.64109 L 391.42150,190.55609 L 383.72650,186.44009 L 384.26340,180.71309 L 379.96830,176.23909 L 380.86310,172.83909 L 383.72650,175.34409 L 385.69510,178.56509 L 388.37960,176.77609 L 388.02170,172.12309 L 384.62130,168.72209 L 380.14730,168.72209 L 377.46280,171.04909 L 374.42040,168.36409 L 376.74690,164.60609 L 380.32620,166.39609 L 385.15820,166.39609 L 383.54760,163.71109 L 378.17870,161.02709 L 372.80970,158.87909 L 368.51460,155.30009 L 368.15670,149.93109 L 362.42980,144.56209 L 362.96670,140.98309 L 365.65120,136.68809 L 364.04050,133.64609 L 360.81920,133.10909 L 359.38740,128.63509 L 354.37650,128.99209 L 352.76580,125.77109 L 353.66060,119.68609 L 351.51300,117.89709 L 345.60720,118.97009 L 343.63860,116.82309 L 341.49110,116.82309 L 339.70140,118.97009 L 337.19590,117.89709 L 337.37490,113.78109 L 335.04840,111.27509 L 332.90080,111.81209 L 328.96360,114.49609 L 326.45810,113.95909 L 326.10020,111.27509 L 329.85840,110.91709 L 326.45810,107.51709 L 320.01540,105.72709 L 318.40470,103.93809 L 315.54130,104.11709 L 313.03580,106.98009 L 309.45650,106.62209 L 307.13000,102.50609 L 307.13000,98.748090 L 302.29800,97.316090 L 300.50836,96.779090 L 300.86628,94.810090 L 302.65590,93.379090 L 308.56170,93.200090 L 309.99340,94.273090 L 312.32000,94.095090 L 312.49890,91.231090 L 309.81450,90.515090 L 306.77210,91.052090 L 304.62450,90.515090 L 304.98250,87.831090 L 306.95110,87.652090 L 312.14100,88.189090 L 312.14100,86.041090 L 308.74070,84.609090 L 306.41420,85.862090 L 301.94010,86.220090 L 299.79250,81.746090 L 301.58210,77.808890 L 306.95110,75.840290 L 313.39370,74.408590 L 319.29960,73.692690 L 323.77370,75.303390 L 324.13160,73.513790 L 330.93220,73.513790 L 332.00600,69.218690 L 336.12220,69.039690 L 342.92280,69.934490 L 346.50210,74.587490 L 349.18650,79.240590 L 351.33410,81.746090 L 354.91340,81.030190 L 357.41880,77.271990 L 364.21950,79.419590 L 365.47220,77.450990 L 371.73600,76.377190 L 373.16770,78.703690 L 378.17870,78.882690 L 380.50520,76.377190 L 378.71550,73.513790 L 377.99970,58.838790 L 372.63080,50.785390 L 371.37800,45.058490 L 371.19910,41.300290 L 369.94630,38.615790 L 369.94630,38.615790"
           style="fill:#fffdf3;fill-opacity:1.0000000;stroke:#ffe490;stroke-width:1.0000000;stroke-opacity:1.0000000"
           id="path4820" />
        <path
           d="M 295.16421,79.276490 C 295.16421,80.147490 294.47923,80.854590 293.63535,80.854590 C 292.79148,80.854590 292.10651,80.147490 292.10651,79.276490 C 292.10651,78.405390 292.79148,77.698290 293.63535,77.698290 C 294.47923,77.698290 295.16421,78.405390 295.16421,79.276490 z "
           style="fill:#fffdf3;fill-opacity:1.0000000;stroke:#ffe490;stroke-width:1.0000000;stroke-opacity:1.0000000"
           id="path4822" />
        <path
           d="M 335.30880,121.98609 L 335.60470,125.53609 L 340.93110,125.93109 L 339.55020,123.46509 L 337.57740,121.88709 L 335.40750,122.57709"
           style="fill:#fffdf3;fill-opacity:1.0000000;stroke:#ffe490;stroke-width:1.0000000;stroke-opacity:1.0000000"
           id="path4824" />
        <path
           d="M 332.64570,118.33609 L 332.74430,119.52009 L 334.91430,120.70309 L 336.39380,119.52009 L 335.01290,118.13909 L 332.74430,118.43509"
           style="fill:#fffdf3;fill-opacity:1.0000000;stroke:#ffe490;stroke-width:1.0000000;stroke-opacity:1.0000000"
           id="path4826" />
        <path
           d="M 341.12830,121.29509 L 344.28470,124.84609 L 345.86280,124.55009 L 343.19970,121.09809 L 341.22700,121.29509"
           style="fill:#fffdf3;fill-opacity:1.0000000;stroke:#ffe490;stroke-width:1.0000000;stroke-opacity:1.0000000"
           id="path4828" />
        <path
           d="M 357.79770,135.99209 L 358.09360,138.65509 L 361.54590,139.64109 L 361.84180,136.68209 L 360.26360,135.10409 L 357.60040,135.79409"
           style="fill:#fffdf3;fill-opacity:1.0000000;stroke:#ffe490;stroke-width:1.0000000;stroke-opacity:1.0000000"
           id="path4830" />
        <path
           d="M 354.54270,146.15109 L 355.03590,148.51809 L 358.78410,148.61709 L 357.20590,146.05309 L 354.44410,146.34809"
           style="fill:#fffdf3;fill-opacity:1.0000000;stroke:#ffe490;stroke-width:1.0000000;stroke-opacity:1.0000000"
           id="path4832" />
        <path
           d="M 361.54590,54.716190 L 361.94040,56.787590 L 365.49130,59.746690 L 370.02850,58.760290 L 368.74630,55.603990 L 364.89950,52.447590 L 361.54590,54.222990"
           style="fill:#fffdf3;fill-opacity:1.0000000;stroke:#ffe490;stroke-width:1.0000000;stroke-opacity:1.0000000"
           id="path4834" />
        <path
           d="M 352.17550,44.162290 L 352.17550,48.600890 L 353.65500,49.488490 L 356.91000,49.587190 L 359.08000,46.430890 L 354.93730,44.852690 L 352.37280,44.063590"
           style="fill:#fffdf3;fill-opacity:1.0000000;stroke:#ffe490;stroke-width:1.0000000;stroke-opacity:1.0000000"
           id="path4836" />
        <path
           d="M 364.50490,37.060490 L 364.11040,41.301790 L 366.28040,41.005890 L 365.88580,36.961890 L 364.60360,36.764590"
           style="fill:#fffdf3;fill-opacity:1.0000000;stroke:#ffe490;stroke-width:1.0000000;stroke-opacity:1.0000000"
           id="path4838" />
        <path
           d="M 353.35910,53.828490 C 353.35910,54.372890 352.91720,54.814790 352.37280,54.814790 C 351.82830,54.814790 351.38640,54.372890 351.38640,53.828490 C 351.38640,53.283990 351.82830,52.842090 352.37280,52.842090 C 352.91720,52.842090 353.35910,53.283990 353.35910,53.828490 z "
           style="fill:#fffdf3;fill-opacity:1.0000000;stroke:#ffe490;stroke-width:1.0000000;stroke-opacity:1.0000000"
           id="path4840" />
        <path
           d="M 366.13120,154.35409 C 366.13120,155.11209 365.70730,155.72609 365.18490,155.72609 C 364.66260,155.72609 364.23870,155.11209 364.23870,154.35409 C 364.23870,153.59709 364.66260,152.98209 365.18490,152.98209 C 365.70730,152.98209 366.13120,153.59709 366.13120,154.35409 z "
           style="fill:#fffdf3;fill-opacity:1.0000000;stroke:#ffe490;stroke-width:1.0000000;stroke-opacity:1.0000000"
           id="path4842" />
      </g>
      <g
         id="g5071">
        <path
           d="M 392.19015,64.303905 L 363.32767,94.864177"
           style="fill:none;fill-opacity:0.75000000;fill-rule:evenodd;stroke:#c332db;stroke-width:1.2500000;stroke-linecap:butt;stroke-linejoin:miter;stroke-miterlimit:4.0000000;stroke-dasharray:none;stroke-opacity:1.0000000"
           id="path4989" />
        <path
           d="M 391.34126,110.99321 L 393.88795,62.606112"
           style="fill:none;fill-opacity:0.75000000;fill-rule:evenodd;stroke:#c332db;stroke-width:1.2500000;stroke-linecap:butt;stroke-linejoin:miter;stroke-miterlimit:4.0000000;stroke-dasharray:none;stroke-opacity:1.0000000"
           id="path4991" />
        <path
           d="M 434.63497,96.561969 L 393.03905,62.606112"
           style="fill:none;fill-opacity:0.75000000;fill-rule:evenodd;stroke:#c332db;stroke-width:1.2500000;stroke-linecap:butt;stroke-linejoin:miter;stroke-miterlimit:4.0000000;stroke-dasharray:none;stroke-opacity:1.0000000"
           id="path4993" />
        <path
           d="M 471.98642,110.14431 L 435.48387,97.410866"
           style="fill:none;fill-opacity:0.75000000;fill-rule:evenodd;stroke:#c332db;stroke-width:1.2500000;stroke-linecap:butt;stroke-linejoin:miter;stroke-miterlimit:4.0000000;stroke-dasharray:none;stroke-opacity:1.0000000"
           id="path4995" />
        <path
           d="M 441.42615,155.13582 L 472.83531,110.14431"
           style="fill:none;fill-opacity:0.75000000;fill-rule:evenodd;stroke:#c332db;stroke-width:1.2500000;stroke-linecap:butt;stroke-linejoin:miter;stroke-miterlimit:4.0000000;stroke-dasharray:none;stroke-opacity:1.0000000"
           id="path4997" />
        <path
           d="M 434.63497,98.259762 L 442.27504,154.28693"
           style="fill:none;fill-opacity:0.75000000;fill-rule:evenodd;stroke:#c332db;stroke-width:1.2500000;stroke-linecap:butt;stroke-linejoin:miter;stroke-miterlimit:4.0000000;stroke-dasharray:none;stroke-opacity:1.0000000"
           id="path4999" />
        <path
           d="M 389.64346,111.84211 L 435.48387,97.410866"
           style="fill:none;fill-opacity:0.75000000;fill-rule:evenodd;stroke:#c332db;stroke-width:1.2500000;stroke-linecap:butt;stroke-linejoin:miter;stroke-miterlimit:4.0000000;stroke-dasharray:none;stroke-opacity:1.0000000"
           id="path5001" />
        <path
           d="M 389.64346,109.29542 L 362.47878,95.713073 L 315.78947,130.51783 L 334.46520,164.47368 L 364.17657,94.864177"
           style="fill:none;fill-opacity:0.75000000;fill-rule:evenodd;stroke:#c332db;stroke-width:1.2500000;stroke-linecap:butt;stroke-linejoin:miter;stroke-miterlimit:4.0000000;stroke-dasharray:none;stroke-opacity:1.0000000"
           id="path5003" />
        <path
           d="M 335.31409,164.47368 L 391.34126,110.14431 L 315.78947,131.36672"
           style="fill:none;fill-opacity:0.75000000;fill-rule:evenodd;stroke:#c332db;stroke-width:1.2500000;stroke-linecap:butt;stroke-linejoin:miter;stroke-miterlimit:4.0000000;stroke-dasharray:none;stroke-opacity:1.0000000"
           id="path5005" />
        <path
           d="M 390.49236,109.29542 L 441.42615,154.28693 C 438.03056,155.98472 373.51443,180.60272 373.51443,180.60272 L 334.46520,166.17148"
           style="fill:none;fill-opacity:0.75000000;fill-rule:evenodd;stroke:#c332db;stroke-width:1.2500000;stroke-linecap:butt;stroke-linejoin:miter;stroke-miterlimit:4.0000000;stroke-dasharray:none;stroke-opacity:1.0000000"
           id="path5007" />
        <path
           d="M 390.49236,113.53990 L 374.36333,180.60272"
           style="fill:none;fill-opacity:0.75000000;fill-rule:evenodd;stroke:#c332db;stroke-width:1.2500000;stroke-linecap:butt;stroke-linejoin:miter;stroke-miterlimit:4.0000000;stroke-dasharray:none;stroke-opacity:1.0000000"
           id="path5009" />
        <path
           d="M 334.46520,167.02037 L 444.82173,155.98472 L 421.05263,219.65195 L 421.05263,219.65195"
           style="fill:none;fill-opacity:0.75000000;fill-rule:evenodd;stroke:#c332db;stroke-width:1.2500000;stroke-linecap:butt;stroke-linejoin:miter;stroke-miterlimit:4.0000000;stroke-dasharray:none;stroke-opacity:1.0000000"
           id="path5011" />
        <path
           d="M 372.66553,179.75382 L 419.35484,218.80306 C 417.65705,212.86078 392.19015,111.84211 392.19015,111.84211"
           style="fill:none;fill-opacity:0.75000000;fill-rule:evenodd;stroke:#c332db;stroke-width:1.2500000;stroke-linecap:butt;stroke-linejoin:miter;stroke-miterlimit:4.0000000;stroke-dasharray:none;stroke-opacity:1.0000000"
           id="path5013" />
        <path
           d="M 435.48387,98.259762 L 421.05263,217.95416"
           style="fill:none;fill-opacity:0.75000000;fill-rule:evenodd;stroke:#c332db;stroke-width:1.2500000;stroke-linecap:butt;stroke-linejoin:miter;stroke-miterlimit:4.0000000;stroke-dasharray:none;stroke-opacity:1.0000000"
           id="path5015" />
        <path
           d="M 443.12394,158.53141 L 479.62649,234.08319 L 420.20374,218.80306"
           style="fill:none;fill-opacity:0.75000000;fill-rule:evenodd;stroke:#c332db;stroke-width:1.2500000;stroke-linecap:butt;stroke-linejoin:miter;stroke-miterlimit:4.0000000;stroke-dasharray:none;stroke-opacity:1.0000000"
           id="path5017" />
        <path
           d="M 402.37691,260.39898 L 477.07980,230.68761"
           style="fill:none;fill-opacity:0.75000000;fill-rule:evenodd;stroke:#c332db;stroke-width:1.2500000;stroke-linecap:butt;stroke-linejoin:miter;stroke-miterlimit:4.0000000;stroke-dasharray:none;stroke-opacity:1.0000000"
           id="path5019" />
        <path
           d="M 421.90153,220.50085 L 402.37691,259.55008 L 402.37691,259.55008 L 402.37691,259.55008 L 340.40747,223.89643 L 373.51443,181.45161"
           style="fill:none;fill-opacity:0.75000000;fill-rule:evenodd;stroke:#c332db;stroke-width:1.2500000;stroke-linecap:butt;stroke-linejoin:miter;stroke-miterlimit:4.0000000;stroke-dasharray:none;stroke-opacity:1.0000000"
           id="path5021" />
        <path
           d="M 334.46520,167.02037 L 340.40747,222.19864 L 421.90153,218.80306"
           style="fill:none;fill-opacity:0.75000000;fill-rule:evenodd;stroke:#c332db;stroke-width:1.2500000;stroke-linecap:butt;stroke-linejoin:miter;stroke-miterlimit:4.0000000;stroke-dasharray:none;stroke-opacity:1.0000000"
           id="path5023" />
        <path
           d="M 403.22581,260.39898 L 374.36333,179.75382"
           style="fill:none;fill-opacity:0.75000000;fill-rule:evenodd;stroke:#c332db;stroke-width:1.2500000;stroke-linecap:butt;stroke-linejoin:miter;stroke-miterlimit:4.0000000;stroke-dasharray:none;stroke-opacity:1.0000000"
           id="path5025" />
        <path
           d="M 333.61630,167.02037 L 402.37691,259.55008"
           style="fill:none;fill-opacity:0.75000000;fill-rule:evenodd;stroke:#c332db;stroke-width:1.2500000;stroke-linecap:butt;stroke-linejoin:miter;stroke-miterlimit:4.0000000;stroke-dasharray:none;stroke-opacity:1.0000000"
           id="path5027" />
      </g>
      <g
         transform="matrix(0.928420,0.000000,0.000000,0.928420,253.6864,-2.179258)"
         style="fill:#ffe1a2;fill-opacity:1.0000000;stroke:#b66600;stroke-opacity:1.0000000"
         id="g4846">
        <path
           d="M 124.49447 112.39664 A 9.2824831 9.2824831 0 1 1  105.92951,112.39664 A 9.2824831 9.2824831 0 1 1  124.49447 112.39664 z"
           transform="matrix(0.647008,0.000000,0.000000,0.647008,-7.571900,70.74621)"
           style="fill:#ffe1a2;fill-opacity:1.0000000;stroke:#b66600;stroke-width:1.0000000;stroke-miterlimit:4.0000000;stroke-dasharray:none;stroke-dashoffset:0.0000000;stroke-opacity:1.0000000"
           id="path4848" />
        <path
           d="M 124.49447 112.39664 A 9.2824831 9.2824831 0 1 1  105.92951,112.39664 A 9.2824831 9.2824831 0 1 1  124.49447 112.39664 z"
           transform="matrix(0.647008,0.000000,0.000000,0.647008,43.83780,31.80908)"
           style="fill:#ffe1a2;fill-opacity:1.0000000;stroke:#b66600;stroke-width:1.0000000;stroke-miterlimit:4.0000000;stroke-dasharray:none;stroke-dashoffset:0.0000000;stroke-opacity:1.0000000"
           id="path4850" />
        <path
           d="M 124.49447 112.39664 A 9.2824831 9.2824831 0 1 1  105.92951,112.39664 A 9.2824831 9.2824831 0 1 1  124.49447 112.39664 z"
           transform="matrix(0.647008,0.000000,0.000000,0.647008,13.97620,108.4361)"
           style="fill:#ffe1a2;fill-opacity:1.0000000;stroke:#b66600;stroke-width:1.0000000;stroke-miterlimit:4.0000000;stroke-dasharray:none;stroke-dashoffset:0.0000000;stroke-opacity:1.0000000"
           id="path4852" />
        <path
           d="M 124.49447 112.39664 A 9.2824831 9.2824831 0 1 1  105.92951,112.39664 A 9.2824831 9.2824831 0 1 1  124.49447 112.39664 z"
           transform="matrix(0.647008,0.000000,0.000000,0.647008,55.48410,124.7870)"
           style="fill:#ffe1a2;fill-opacity:1.0000000;stroke:#b66600;stroke-width:1.0000000;stroke-miterlimit:4.0000000;stroke-dasharray:none;stroke-dashoffset:0.0000000;stroke-opacity:1.0000000"
           id="path4854" />
        <path
           d="M 124.49447 112.39664 A 9.2824831 9.2824831 0 1 1  105.92951,112.39664 A 9.2824831 9.2824831 0 1 1  124.49447 112.39664 z"
           transform="matrix(0.647008,0.000000,0.000000,0.647008,19.06490,170.6457)"
           style="fill:#ffe1a2;fill-opacity:1.0000000;stroke:#b66600;stroke-width:1.0000000;stroke-miterlimit:4.0000000;stroke-dasharray:none;stroke-dashoffset:0.0000000;stroke-opacity:1.0000000"
           id="path4856" />
        <path
           d="M 124.49447 112.39664 A 9.2824831 9.2824831 0 1 1  105.92951,112.39664 A 9.2824831 9.2824831 0 1 1  124.49447 112.39664 z"
           transform="matrix(0.647008,0.000000,0.000000,0.647008,86.40270,210.0580)"
           style="fill:#ffe1a2;fill-opacity:1.0000000;stroke:#b66600;stroke-width:1.0000000;stroke-miterlimit:4.0000000;stroke-dasharray:none;stroke-dashoffset:0.0000000;stroke-opacity:1.0000000"
           id="path4858" />
        <path
           d="M 124.49447 112.39664 A 9.2824831 9.2824831 0 1 1  105.92951,112.39664 A 9.2824831 9.2824831 0 1 1  124.49447 112.39664 z"
           transform="matrix(0.647008,0.000000,0.000000,0.647008,105.9988,165.3974)"
           style="fill:#ffe1a2;fill-opacity:1.0000000;stroke:#b66600;stroke-width:1.0000000;stroke-miterlimit:4.0000000;stroke-dasharray:none;stroke-dashoffset:0.0000000;stroke-opacity:1.0000000"
           id="path4860" />
        <path
           d="M 124.49447 112.39664 A 9.2824831 9.2824831 0 1 1  105.92951,112.39664 A 9.2824831 9.2824831 0 1 1  124.49447 112.39664 z"
           transform="matrix(0.647008,0.000000,0.000000,0.647008,167.1468,178.1308)"
           style="fill:#ffe1a2;fill-opacity:1.0000000;stroke:#b66600;stroke-width:1.0000000;stroke-miterlimit:4.0000000;stroke-dasharray:none;stroke-dashoffset:0.0000000;stroke-opacity:1.0000000"
           id="path4862" />
        <path
           d="M 124.49447 112.39664 A 9.2824831 9.2824831 0 1 1  105.92951,112.39664 A 9.2824831 9.2824831 0 1 1  124.49447 112.39664 z"
           transform="matrix(0.647008,0.000000,0.000000,0.647008,128.8402,97.55084)"
           style="fill:#ffe1a2;fill-opacity:1.0000000;stroke:#b66600;stroke-width:1.0000000;stroke-miterlimit:4.0000000;stroke-dasharray:none;stroke-dashoffset:0.0000000;stroke-opacity:1.0000000"
           id="path4864" />
        <path
           d="M 124.49447 112.39664 A 9.2824831 9.2824831 0 1 1  105.92951,112.39664 A 9.2824831 9.2824831 0 1 1  124.49447 112.39664 z"
           transform="matrix(0.647008,0.000000,0.000000,0.647008,159.2107,48.24337)"
           style="fill:#ffe1a2;fill-opacity:1.0000000;stroke:#b66600;stroke-width:1.0000000;stroke-miterlimit:4.0000000;stroke-dasharray:none;stroke-dashoffset:0.0000000;stroke-opacity:1.0000000"
           id="path4866" />
        <path
           d="M 124.49447 112.39664 A 9.2824831 9.2824831 0 1 1  105.92951,112.39664 A 9.2824831 9.2824831 0 1 1  124.49447 112.39664 z"
           transform="matrix(0.647008,0.000000,0.000000,0.647008,121.6329,34.80221)"
           style="fill:#ffe1a2;fill-opacity:1.0000000;stroke:#b66600;stroke-width:1.0000000;stroke-miterlimit:4.0000000;stroke-dasharray:none;stroke-dashoffset:0.0000000;stroke-opacity:1.0000000"
           id="path4868" />
        <path
           d="M 124.49447 112.39664 A 9.2824831 9.2824831 0 1 1  105.92951,112.39664 A 9.2824831 9.2824831 0 1 1  124.49447 112.39664 z"
           transform="matrix(0.647008,0.000000,0.000000,0.647008,74.37240,49.14086)"
           style="fill:#ffe1a2;fill-opacity:1.0000000;stroke:#b66600;stroke-width:1.0000000;stroke-miterlimit:4.0000000;stroke-dasharray:none;stroke-dashoffset:0.0000000;stroke-opacity:1.0000000"
           id="path4870" />
        <path
           d="M 124.49447 112.39664 A 9.2824831 9.2824831 0 1 1  105.92951,112.39664 A 9.2824831 9.2824831 0 1 1  124.49447 112.39664 z"
           transform="matrix(0.647008,0.000000,0.000000,0.647008,76.27830,-2.315410)"
           style="fill:#ffe1a2;fill-opacity:1.0000000;stroke:#b66600;stroke-width:1.0000000;stroke-miterlimit:4.0000000;stroke-dasharray:none;stroke-dashoffset:0.0000000;stroke-opacity:1.0000000"
           id="path4872" />
      </g>
    </g>
    <g
       transform="translate(-8.726712,-8.759010)"
       id="g5251">
      <g
         transform="matrix(0.728410,0.000000,0.000000,0.728410,300.9766,47.43855)"
         style="fill:#fffdf3;fill-opacity:1.0000000;stroke:#ffe490;stroke-opacity:1.0000000"
         id="g4874">
        <path
           d="M 370.12530,38.615790 L 375.49420,38.794790 L 376.21000,40.584390 L 380.32620,40.584390 L 381.75790,39.331690 L 386.59000,40.047490 L 386.76890,43.089890 L 385.69510,43.626790 L 385.51620,47.206090 L 388.37960,49.532590 L 388.37960,52.217090 L 390.16920,52.217090 L 390.52720,50.785390 L 397.86450,51.501190 L 407.34950,53.648790 L 409.67650,55.438390 L 414.32950,55.259490 L 418.08750,51.680190 L 421.48750,50.248490 L 418.26650,49.353690 L 416.47650,47.384990 L 419.16150,44.700590 L 420.05650,40.942290 L 425.42550,37.184090 L 430.61550,34.499690 L 438.84750,32.352090 L 445.29050,28.056990 L 450.12250,21.256290 L 452.09050,13.202990 L 451.37450,3.0019900 L 453.16450,-2.9038100 L 457.81750,-5.7672100 L 463.54450,-7.0199400 L 471.95550,-11.494070 L 474.64050,-5.9461100 L 473.74550,-2.1879100 L 478.39850,1.3913900 L 481.97750,3.3598900 L 486.09350,-0.57721000 L 489.13650,2.8230900 L 489.67350,6.4023900 L 491.99950,9.8025900 L 497.18950,9.0867900 L 499.87450,12.666090 L 500.41050,14.992590 L 506.13750,14.634690 L 509.18050,14.276790 L 511.50650,16.424290 L 510.61150,21.614290 L 512.75950,23.224890 L 511.68550,25.909390 L 513.83350,27.519990 L 520.99150,27.341090 L 524.03450,24.477690 L 527.07650,18.750790 L 527.07650,26.625290 L 528.86650,31.994190 L 538.53050,35.573390 L 543.18350,40.942290 L 546.94150,40.763390 L 549.80450,38.257890 L 552.84750,41.658190 L 559.64750,40.942290 L 562.86950,39.152690 L 566.80650,40.942290 L 573.60750,50.069490 L 577.36550,50.427490 L 577.18650,48.458790 L 581.12350,47.921990 L 583.80850,50.785390 L 588.10350,50.248490 L 589.17650,48.458790 L 592.04050,48.816790 L 594.72450,52.038090 L 602.77850,50.606390 L 609.75750,52.753990 L 608.50550,59.733490 L 602.77850,65.639390 L 599.73550,85.683090 L 600.80950,92.663090 L 599.02050,98.390090 L 600.63050,103.04309 L 601.16750,107.15909 L 598.30450,110.73809 L 592.75650,110.91709 L 592.39850,108.41209 L 590.42950,108.94909 L 586.13450,112.52809 L 586.13450,115.39109 L 589.89250,114.49609 L 589.17650,117.18109 L 581.48150,129.52909 L 577.18650,130.24509 L 576.64950,138.65709 L 570.02750,144.92009 L 571.10150,146.88909 L 569.31250,149.75209 L 569.31250,152.25809 L 572.17550,154.04709 L 570.56450,157.62709 L 566.80650,159.41609 L 568.95450,162.28009 L 573.60750,161.02709 L 575.75450,158.70009 L 575.75450,156.73209 L 573.78650,154.76309 L 576.11250,152.79509 L 580.40750,152.43709 L 585.06050,149.21509 L 590.07150,154.76309 L 587.92450,159.59509 L 590.42950,159.77409 L 595.44050,166.75409 L 593.11450,170.33309 L 590.07150,171.76509 L 590.25050,175.16509 L 592.75650,177.13409 L 595.61950,177.49209 L 595.97750,181.96609 L 600.98850,185.72409 L 600.98850,192.16709 L 594.72450,196.64109 L 589.35550,196.64109 L 589.53450,200.75709 L 592.39850,202.36809 L 593.29350,205.76809 L 599.91450,207.73709 L 599.91450,216.14809 L 596.33550,219.01109 L 600.09350,221.87509 L 597.76750,222.77009 L 597.76750,225.27509 L 603.49450,229.57009 L 607.43150,229.57009 L 609.39950,231.18109 L 618.34850,232.07609 L 620.31650,228.49609 L 622.10650,233.32809 L 620.85350,237.62309 L 618.16950,241.38209 L 619.95850,244.78209 L 614.94750,247.46709 L 610.65250,249.43509 L 608.68450,254.08809 L 605.64150,255.69909 L 603.31550,260.35209 L 598.84150,262.85709 L 598.30450,269.83709 L 590.96650,270.91109 L 587.20850,274.66909 L 579.87050,275.92209 L 571.63850,274.49009 L 561.79550,271.80609 L 561.79550,267.86809 L 557.85850,267.68909 L 555.53150,269.12109 L 541.39350,268.76309 L 539.24650,264.82609 L 535.12950,266.07909 L 528.15050,265.72109 L 525.28650,262.67809 L 511.68550,273.05809 L 508.64350,273.59509 L 503.09550,278.78509 L 499.69550,286.12309 L 499.87450,295.60809 L 501.66350,303.12409 L 500.05350,304.01909 L 496.29450,304.73509 L 489.85250,310.28309 L 484.66250,309.92509 L 480.90350,307.41909 L 476.07150,307.95609 L 475.35550,310.10409 L 470.88150,310.10409 L 469.80850,306.88209 L 464.43950,304.19809 L 464.26050,301.15609 L 457.81750,299.00809 L 455.84850,301.15609 L 453.52250,296.68209 L 447.97450,297.03909 L 446.18450,294.17609 L 440.63750,293.46009 L 433.47850,292.20709 L 434.91050,297.93409 L 425.24650,298.65009 L 413.61350,297.39709 L 413.61350,294.71309 L 406.63350,292.74409 L 400.19150,294.53409 L 395.00150,287.73309 L 386.76890,287.73309 L 381.40000,284.33309 L 380.50520,282.18609 L 379.61040,282.00709 L 378.35760,284.87009 L 376.21000,284.51209 L 376.21000,282.18609 L 377.64180,281.29109 L 377.46280,275.56409 L 368.33560,274.13209 L 366.36700,271.26909 L 370.84110,269.83709 L 375.67320,264.11009 L 377.10490,256.59409 L 380.32620,246.03509 L 381.93690,234.58109 L 383.36860,223.12709 L 387.30580,224.02209 L 383.72650,219.36909 L 384.62130,206.12609 L 385.51620,193.77709 L 388.02170,192.34609 L 390.88510,194.85109 L 395.53850,201.11509 L 398.22250,207.91609 L 397.32750,196.64109 L 391.42150,190.55609 L 383.72650,186.44009 L 384.26340,180.71309 L 379.96830,176.23909 L 380.86310,172.83909 L 383.72650,175.34409 L 385.69510,178.56509 L 388.37960,176.77609 L 388.02170,172.12309 L 384.62130,168.72209 L 380.14730,168.72209 L 377.46280,171.04909 L 374.42040,168.36409 L 376.74690,164.60609 L 380.32620,166.39609 L 385.15820,166.39609 L 383.54760,163.71109 L 378.17870,161.02709 L 372.80970,158.87909 L 368.51460,155.30009 L 368.15670,149.93109 L 362.42980,144.56209 L 362.96670,140.98309 L 365.65120,136.68809 L 364.04050,133.64609 L 360.81920,133.10909 L 359.38740,128.63509 L 354.37650,128.99209 L 352.76580,125.77109 L 353.66060,119.68609 L 351.51300,117.89709 L 345.60720,118.97009 L 343.63860,116.82309 L 341.49110,116.82309 L 339.70140,118.97009 L 337.19590,117.89709 L 337.37490,113.78109 L 335.04840,111.27509 L 332.90080,111.81209 L 328.96360,114.49609 L 326.45810,113.95909 L 326.10020,111.27509 L 329.85840,110.91709 L 326.45810,107.51709 L 320.01540,105.72709 L 318.40470,103.93809 L 315.54130,104.11709 L 313.03580,106.98009 L 309.45650,106.62209 L 307.13000,102.50609 L 307.13000,98.748090 L 302.29800,97.316090 L 300.50836,96.779090 L 300.86628,94.810090 L 302.65590,93.379090 L 308.56170,93.200090 L 309.99340,94.273090 L 312.32000,94.095090 L 312.49890,91.231090 L 309.81450,90.515090 L 306.77210,91.052090 L 304.62450,90.515090 L 304.98250,87.831090 L 306.95110,87.652090 L 312.14100,88.189090 L 312.14100,86.041090 L 308.74070,84.609090 L 306.41420,85.862090 L 301.94010,86.220090 L 299.79250,81.746090 L 301.58210,77.808890 L 306.95110,75.840290 L 313.39370,74.408590 L 319.29960,73.692690 L 323.77370,75.303390 L 324.13160,73.513790 L 330.93220,73.513790 L 332.00600,69.218690 L 336.12220,69.039690 L 342.92280,69.934490 L 346.50210,74.587490 L 349.18650,79.240590 L 351.33410,81.746090 L 354.91340,81.030190 L 357.41880,77.271990 L 364.21950,79.419590 L 365.47220,77.450990 L 371.73600,76.377190 L 373.16770,78.703690 L 378.17870,78.882690 L 380.50520,76.377190 L 378.71550,73.513790 L 377.99970,58.838790 L 372.63080,50.785390 L 371.37800,45.058490 L 371.19910,41.300290 L 369.94630,38.615790 L 369.94630,38.615790"
           style="fill:#fffdf3;fill-opacity:1.0000000;stroke:#ffe490;stroke-width:1.0000000;stroke-opacity:1.0000000"
           id="path4876" />
        <path
           d="M 295.16421,79.276490 C 295.16421,80.147490 294.47923,80.854590 293.63535,80.854590 C 292.79148,80.854590 292.10651,80.147490 292.10651,79.276490 C 292.10651,78.405390 292.79148,77.698290 293.63535,77.698290 C 294.47923,77.698290 295.16421,78.405390 295.16421,79.276490 z "
           style="fill:#fffdf3;fill-opacity:1.0000000;stroke:#ffe490;stroke-width:1.0000000;stroke-opacity:1.0000000"
           id="path4878" />
        <path
           d="M 335.30880,121.98609 L 335.60470,125.53609 L 340.93110,125.93109 L 339.55020,123.46509 L 337.57740,121.88709 L 335.40750,122.57709"
           style="fill:#fffdf3;fill-opacity:1.0000000;stroke:#ffe490;stroke-width:1.0000000;stroke-opacity:1.0000000"
           id="path4880" />
        <path
           d="M 332.64570,118.33609 L 332.74430,119.52009 L 334.91430,120.70309 L 336.39380,119.52009 L 335.01290,118.13909 L 332.74430,118.43509"
           style="fill:#fffdf3;fill-opacity:1.0000000;stroke:#ffe490;stroke-width:1.0000000;stroke-opacity:1.0000000"
           id="path4882" />
        <path
           d="M 341.12830,121.29509 L 344.28470,124.84609 L 345.86280,124.55009 L 343.19970,121.09809 L 341.22700,121.29509"
           style="fill:#fffdf3;fill-opacity:1.0000000;stroke:#ffe490;stroke-width:1.0000000;stroke-opacity:1.0000000"
           id="path4884" />
        <path
           d="M 357.79770,135.99209 L 358.09360,138.65509 L 361.54590,139.64109 L 361.84180,136.68209 L 360.26360,135.10409 L 357.60040,135.79409"
           style="fill:#fffdf3;fill-opacity:1.0000000;stroke:#ffe490;stroke-width:1.0000000;stroke-opacity:1.0000000"
           id="path4886" />
        <path
           d="M 354.54270,146.15109 L 355.03590,148.51809 L 358.78410,148.61709 L 357.20590,146.05309 L 354.44410,146.34809"
           style="fill:#fffdf3;fill-opacity:1.0000000;stroke:#ffe490;stroke-width:1.0000000;stroke-opacity:1.0000000"
           id="path4888" />
        <path
           d="M 361.54590,54.716190 L 361.94040,56.787590 L 365.49130,59.746690 L 370.02850,58.760290 L 368.74630,55.603990 L 364.89950,52.447590 L 361.54590,54.222990"
           style="fill:#fffdf3;fill-opacity:1.0000000;stroke:#ffe490;stroke-width:1.0000000;stroke-opacity:1.0000000"
           id="path4890" />
        <path
           d="M 352.17550,44.162290 L 352.17550,48.600890 L 353.65500,49.488490 L 356.91000,49.587190 L 359.08000,46.430890 L 354.93730,44.852690 L 352.37280,44.063590"
           style="fill:#fffdf3;fill-opacity:1.0000000;stroke:#ffe490;stroke-width:1.0000000;stroke-opacity:1.0000000"
           id="path4892" />
        <path
           d="M 364.50490,37.060490 L 364.11040,41.301790 L 366.28040,41.005890 L 365.88580,36.961890 L 364.60360,36.764590"
           style="fill:#fffdf3;fill-opacity:1.0000000;stroke:#ffe490;stroke-width:1.0000000;stroke-opacity:1.0000000"
           id="path4894" />
        <path
           d="M 353.35910,53.828490 C 353.35910,54.372890 352.91720,54.814790 352.37280,54.814790 C 351.82830,54.814790 351.38640,54.372890 351.38640,53.828490 C 351.38640,53.283990 351.82830,52.842090 352.37280,52.842090 C 352.91720,52.842090 353.35910,53.283990 353.35910,53.828490 z "
           style="fill:#fffdf3;fill-opacity:1.0000000;stroke:#ffe490;stroke-width:1.0000000;stroke-opacity:1.0000000"
           id="path4896" />
        <path
           d="M 366.13120,154.35409 C 366.13120,155.11209 365.70730,155.72609 365.18490,155.72609 C 364.66260,155.72609 364.23870,155.11209 364.23870,154.35409 C 364.23870,153.59709 364.66260,152.98209 365.18490,152.98209 C 365.70730,152.98209 366.13120,153.59709 366.13120,154.35409 z "
           style="fill:#fffdf3;fill-opacity:1.0000000;stroke:#ffe490;stroke-width:1.0000000;stroke-opacity:1.0000000"
           id="path4898" />
      </g>
      <g
         style="stroke:#7f13ff;stroke-width:0.62500000;stroke-miterlimit:4.0000000;stroke-dasharray:0.62500000 0.62500000 ;stroke-dashoffset:0.0000000;stroke-opacity:1.0000000"
         id="g5155">
        <path
           d="M 643.03906,104.62649 L 645.58575,56.239389"
           style="fill:none;fill-opacity:0.75000000;fill-rule:evenodd;stroke:#7f13ff;stroke-width:0.62500000;stroke-linecap:butt;stroke-linejoin:miter;stroke-miterlimit:4.0000000;stroke-dasharray:0.62500000 0.62500000 ;stroke-dashoffset:0.0000000;stroke-opacity:1.0000000"
           id="path5097" />
        <path
           d="M 686.33277,91.893039 L 693.97284,147.92021"
           style="fill:none;fill-opacity:0.75000000;fill-rule:evenodd;stroke:#7f13ff;stroke-width:0.62500000;stroke-linecap:butt;stroke-linejoin:miter;stroke-miterlimit:4.0000000;stroke-dasharray:0.62500000 0.62500000 ;stroke-dashoffset:0.0000000;stroke-opacity:1.0000000"
           id="path5105" />
        <path
           d="M 641.34126,105.47539 L 687.18167,91.044143"
           style="fill:none;fill-opacity:0.75000000;fill-rule:evenodd;stroke:#7f13ff;stroke-width:0.62500000;stroke-linecap:butt;stroke-linejoin:miter;stroke-miterlimit:4.0000000;stroke-dasharray:0.62500000 0.62500000 ;stroke-dashoffset:0.0000000;stroke-opacity:1.0000000"
           id="path5107" />
        <path
           d="M 613.17691,86.347353 L 566.48760,121.15211 L 614.87470,85.498457"
           style="fill:none;fill-opacity:0.75000000;fill-rule:evenodd;stroke:#7f13ff;stroke-width:0.62500000;stroke-linecap:butt;stroke-linejoin:miter;stroke-miterlimit:4.0000000;stroke-dasharray:0.62500000 0.62500000 ;stroke-dashoffset:0.0000000;stroke-opacity:1.0000000"
           id="path5109" />
        <path
           d="M 587.01189,158.10696 L 643.03906,103.77759"
           style="fill:none;fill-opacity:0.75000000;fill-rule:evenodd;stroke:#7f13ff;stroke-width:0.62500000;stroke-linecap:butt;stroke-linejoin:miter;stroke-miterlimit:4.0000000;stroke-dasharray:0.62500000 0.62500000 ;stroke-dashoffset:0.0000000;stroke-opacity:1.0000000"
           id="path5111" />
        <path
           d="M 642.19016,102.92870 L 693.12395,147.92021 C 689.72836,149.61800 624.87901,174.23600 624.87901,174.23600"
           style="fill:none;fill-opacity:0.75000000;fill-rule:evenodd;stroke:#7f13ff;stroke-width:0.62500000;stroke-linecap:butt;stroke-linejoin:miter;stroke-miterlimit:4.0000000;stroke-dasharray:0.62500000 0.62500000 ;stroke-dashoffset:0.0000000;stroke-opacity:1.0000000"
           id="path5113" />
        <path
           d="M 642.19016,107.17318 L 626.06113,174.23600"
           style="fill:none;fill-opacity:0.75000000;fill-rule:evenodd;stroke:#7f13ff;stroke-width:0.62500000;stroke-linecap:butt;stroke-linejoin:miter;stroke-miterlimit:4.0000000;stroke-dasharray:0.62500000 0.62500000 ;stroke-dashoffset:0.0000000;stroke-opacity:1.0000000"
           id="path5115" />
        <path
           d="M 586.16300,160.65365 L 696.51953,149.61800 L 672.75043,213.28523 L 672.75043,213.28523"
           style="fill:none;fill-opacity:0.75000000;fill-rule:evenodd;stroke:#7f13ff;stroke-width:0.62500000;stroke-linecap:butt;stroke-linejoin:miter;stroke-miterlimit:4.0000000;stroke-dasharray:0.62500000 0.62500000 ;stroke-dashoffset:0.0000000;stroke-opacity:1.0000000"
           id="path5117" />
        <path
           d="M 624.36333,173.38710 L 671.05264,212.43634 C 669.35485,206.49406 643.88795,105.47539 643.88795,105.47539"
           style="fill:none;fill-opacity:0.75000000;fill-rule:evenodd;stroke:#7f13ff;stroke-width:0.62500000;stroke-linecap:butt;stroke-linejoin:miter;stroke-miterlimit:4.0000000;stroke-dasharray:0.62500000 0.62500000 ;stroke-dashoffset:0.0000000;stroke-opacity:1.0000000"
           id="path5119" />
        <path
           d="M 687.18167,91.893039 L 672.75043,211.58744"
           style="fill:none;fill-opacity:0.75000000;fill-rule:evenodd;stroke:#7f13ff;stroke-width:0.62500000;stroke-linecap:butt;stroke-linejoin:miter;stroke-miterlimit:4.0000000;stroke-dasharray:0.62500000 0.62500000 ;stroke-dashoffset:0.0000000;stroke-opacity:1.0000000"
           id="path5121" />
        <path
           d="M 654.07471,254.03226 L 728.77760,224.32089"
           style="fill:none;fill-opacity:0.75000000;fill-rule:evenodd;stroke:#7f13ff;stroke-width:0.62500000;stroke-linecap:butt;stroke-linejoin:miter;stroke-miterlimit:4.0000000;stroke-dasharray:0.62500000 0.62500000 ;stroke-dashoffset:0.0000000;stroke-opacity:1.0000000"
           id="path5125" />
        <path
           d="M 586.16300,160.65365 L 592.10527,215.83192 L 673.59933,212.43634"
           style="fill:none;fill-opacity:0.75000000;fill-rule:evenodd;stroke:#7f13ff;stroke-width:0.62500000;stroke-linecap:butt;stroke-linejoin:miter;stroke-miterlimit:4.0000000;stroke-dasharray:0.62500000 0.62500000 ;stroke-dashoffset:0.0000000;stroke-opacity:1.0000000"
           id="path5129" />
        <path
           d="M 654.92361,254.03226 L 626.06113,173.38710"
           style="fill:none;fill-opacity:0.75000000;fill-rule:evenodd;stroke:#7f13ff;stroke-width:0.62500000;stroke-linecap:butt;stroke-linejoin:miter;stroke-miterlimit:4.0000000;stroke-dasharray:0.62500000 0.62500000 ;stroke-dashoffset:0.0000000;stroke-opacity:1.0000000"
           id="path5131" />
        <path
           d="M 585.31410,160.65365 L 653.40827,253.18336"
           style="fill:none;fill-opacity:0.75000000;fill-rule:evenodd;stroke:#7f13ff;stroke-width:0.62500000;stroke-linecap:butt;stroke-linejoin:miter;stroke-miterlimit:4.0000000;stroke-dasharray:0.62500000 0.62500000 ;stroke-dashoffset:0.0000000;stroke-opacity:1.0000000"
           id="path5133" />
      </g>
      <path
         d="M 643.81196,56.733633 L 613.86292,86.682661 L 641.90247,103.77820 L 563.42246,125.30115 L 585.49016,159.97897 L 624.89677,172.58908 L 590.21896,217.51263 L 653.26955,255.34298 L 671.39658,211.99570 L 727.35398,223.02955 L 692.67616,148.94512 L 721.04892,102.44531 L 686.37110,90.623322 L 643.81196,56.733633 z "
         style="fill:none;fill-opacity:0.75000000;fill-rule:evenodd;stroke:#ff13bd;stroke-width:2.2500000;stroke-linecap:butt;stroke-linejoin:miter;stroke-miterlimit:4.0000000;stroke-dasharray:none;stroke-opacity:1.0000000"
         id="path4900" />
      <g
         transform="matrix(0.928420,0.000000,0.000000,0.928420,504.3125,-9.272447)"
         style="fill:#ffe1a2;fill-opacity:1.0000000;stroke:#b66600;stroke-opacity:1.0000000"
         id="g4902">
        <path
           d="M 124.49447 112.39664 A 9.2824831 9.2824831 0 1 1  105.92951,112.39664 A 9.2824831 9.2824831 0 1 1  124.49447 112.39664 z"
           transform="matrix(0.647008,0.000000,0.000000,0.647008,-7.571900,70.74621)"
           style="fill:#ffe1a2;fill-opacity:1.0000000;stroke:#b66600;stroke-width:1.0000000;stroke-miterlimit:4.0000000;stroke-dasharray:none;stroke-dashoffset:0.0000000;stroke-opacity:1.0000000"
           id="path4904" />
        <path
           d="M 124.49447 112.39664 A 9.2824831 9.2824831 0 1 1  105.92951,112.39664 A 9.2824831 9.2824831 0 1 1  124.49447 112.39664 z"
           transform="matrix(0.647008,0.000000,0.000000,0.647008,43.83780,31.80908)"
           style="fill:#ffe1a2;fill-opacity:1.0000000;stroke:#b66600;stroke-width:1.0000000;stroke-miterlimit:4.0000000;stroke-dasharray:none;stroke-dashoffset:0.0000000;stroke-opacity:1.0000000"
           id="path4906" />
        <path
           d="M 124.49447 112.39664 A 9.2824831 9.2824831 0 1 1  105.92951,112.39664 A 9.2824831 9.2824831 0 1 1  124.49447 112.39664 z"
           transform="matrix(0.647008,0.000000,0.000000,0.647008,13.97620,108.4361)"
           style="fill:#ffe1a2;fill-opacity:1.0000000;stroke:#b66600;stroke-width:1.0000000;stroke-miterlimit:4.0000000;stroke-dasharray:none;stroke-dashoffset:0.0000000;stroke-opacity:1.0000000"
           id="path4908" />
        <path
           d="M 124.49447 112.39664 A 9.2824831 9.2824831 0 1 1  105.92951,112.39664 A 9.2824831 9.2824831 0 1 1  124.49447 112.39664 z"
           transform="matrix(0.647008,0.000000,0.000000,0.647008,55.48410,124.7870)"
           style="fill:#ffe1a2;fill-opacity:1.0000000;stroke:#b66600;stroke-width:1.0000000;stroke-miterlimit:4.0000000;stroke-dasharray:none;stroke-dashoffset:0.0000000;stroke-opacity:1.0000000"
           id="path4910" />
        <path
           d="M 124.49447 112.39664 A 9.2824831 9.2824831 0 1 1  105.92951,112.39664 A 9.2824831 9.2824831 0 1 1  124.49447 112.39664 z"
           transform="matrix(0.647008,0.000000,0.000000,0.647008,19.06490,170.6457)"
           style="fill:#ffe1a2;fill-opacity:1.0000000;stroke:#b66600;stroke-width:1.0000000;stroke-miterlimit:4.0000000;stroke-dasharray:none;stroke-dashoffset:0.0000000;stroke-opacity:1.0000000"
           id="path4912" />
        <path
           d="M 124.49447 112.39664 A 9.2824831 9.2824831 0 1 1  105.92951,112.39664 A 9.2824831 9.2824831 0 1 1  124.49447 112.39664 z"
           transform="matrix(0.647008,0.000000,0.000000,0.647008,86.40270,210.0580)"
           style="fill:#ffe1a2;fill-opacity:1.0000000;stroke:#b66600;stroke-width:1.0000000;stroke-miterlimit:4.0000000;stroke-dasharray:none;stroke-dashoffset:0.0000000;stroke-opacity:1.0000000"
           id="path4914" />
        <path
           d="M 124.49447 112.39664 A 9.2824831 9.2824831 0 1 1  105.92951,112.39664 A 9.2824831 9.2824831 0 1 1  124.49447 112.39664 z"
           transform="matrix(0.647008,0.000000,0.000000,0.647008,105.9988,165.3974)"
           style="fill:#ffe1a2;fill-opacity:1.0000000;stroke:#b66600;stroke-width:1.0000000;stroke-miterlimit:4.0000000;stroke-dasharray:none;stroke-dashoffset:0.0000000;stroke-opacity:1.0000000"
           id="path4916" />
        <path
           d="M 124.49447 112.39664 A 9.2824831 9.2824831 0 1 1  105.92951,112.39664 A 9.2824831 9.2824831 0 1 1  124.49447 112.39664 z"
           transform="matrix(0.647008,0.000000,0.000000,0.647008,167.1468,178.1308)"
           style="fill:#ffe1a2;fill-opacity:1.0000000;stroke:#b66600;stroke-width:1.0000000;stroke-miterlimit:4.0000000;stroke-dasharray:none;stroke-dashoffset:0.0000000;stroke-opacity:1.0000000"
           id="path4918" />
        <path
           d="M 124.49447 112.39664 A 9.2824831 9.2824831 0 1 1  105.92951,112.39664 A 9.2824831 9.2824831 0 1 1  124.49447 112.39664 z"
           transform="matrix(0.647008,0.000000,0.000000,0.647008,128.8402,97.55084)"
           style="fill:#ffe1a2;fill-opacity:1.0000000;stroke:#b66600;stroke-width:1.0000000;stroke-miterlimit:4.0000000;stroke-dasharray:none;stroke-dashoffset:0.0000000;stroke-opacity:1.0000000"
           id="path4920" />
        <path
           d="M 124.49447 112.39664 A 9.2824831 9.2824831 0 1 1  105.92951,112.39664 A 9.2824831 9.2824831 0 1 1  124.49447 112.39664 z"
           transform="matrix(0.647008,0.000000,0.000000,0.647008,159.2107,48.24337)"
           style="fill:#ffe1a2;fill-opacity:1.0000000;stroke:#b66600;stroke-width:1.0000000;stroke-miterlimit:4.0000000;stroke-dasharray:none;stroke-dashoffset:0.0000000;stroke-opacity:1.0000000"
           id="path4922" />
        <path
           d="M 124.49447 112.39664 A 9.2824831 9.2824831 0 1 1  105.92951,112.39664 A 9.2824831 9.2824831 0 1 1  124.49447 112.39664 z"
           transform="matrix(0.647008,0.000000,0.000000,0.647008,121.6329,34.80221)"
           style="fill:#ffe1a2;fill-opacity:1.0000000;stroke:#b66600;stroke-width:1.0000000;stroke-miterlimit:4.0000000;stroke-dasharray:none;stroke-dashoffset:0.0000000;stroke-opacity:1.0000000"
           id="path4924" />
        <path
           d="M 124.49447 112.39664 A 9.2824831 9.2824831 0 1 1  105.92951,112.39664 A 9.2824831 9.2824831 0 1 1  124.49447 112.39664 z"
           transform="matrix(0.647008,0.000000,0.000000,0.647008,74.37240,49.14086)"
           style="fill:#ffe1a2;fill-opacity:1.0000000;stroke:#b66600;stroke-width:1.0000000;stroke-miterlimit:4.0000000;stroke-dasharray:none;stroke-dashoffset:0.0000000;stroke-opacity:1.0000000"
           id="path4926" />
        <path
           d="M 124.49447 112.39664 A 9.2824831 9.2824831 0 1 1  105.92951,112.39664 A 9.2824831 9.2824831 0 1 1  124.49447 112.39664 z"
           transform="matrix(0.647008,0.000000,0.000000,0.647008,76.27830,-2.315410)"
           style="fill:#ffe1a2;fill-opacity:1.0000000;stroke:#b66600;stroke-width:1.0000000;stroke-miterlimit:4.0000000;stroke-dasharray:none;stroke-dashoffset:0.0000000;stroke-opacity:1.0000000"
           id="path4928" />
      </g>
    </g>
    <g
       transform="translate(12.73346,-26.88605)"
       id="g5296">
      <g
         transform="matrix(0.728410,0.000000,0.000000,0.728410,530.3231,65.56559)"
         style="fill:#fffdf3;fill-opacity:1.0000000;stroke:#ffe490;stroke-opacity:1.0000000"
         id="g4930">
        <path
           d="M 370.12530,38.615790 L 375.49420,38.794790 L 376.21000,40.584390 L 380.32620,40.584390 L 381.75790,39.331690 L 386.59000,40.047490 L 386.76890,43.089890 L 385.69510,43.626790 L 385.51620,47.206090 L 388.37960,49.532590 L 388.37960,52.217090 L 390.16920,52.217090 L 390.52720,50.785390 L 397.86450,51.501190 L 407.34950,53.648790 L 409.67650,55.438390 L 414.32950,55.259490 L 418.08750,51.680190 L 421.48750,50.248490 L 418.26650,49.353690 L 416.47650,47.384990 L 419.16150,44.700590 L 420.05650,40.942290 L 425.42550,37.184090 L 430.61550,34.499690 L 438.84750,32.352090 L 445.29050,28.056990 L 450.12250,21.256290 L 452.09050,13.202990 L 451.37450,3.0019900 L 453.16450,-2.9038100 L 457.81750,-5.7672100 L 463.54450,-7.0199400 L 471.95550,-11.494070 L 474.64050,-5.9461100 L 473.74550,-2.1879100 L 478.39850,1.3913900 L 481.97750,3.3598900 L 486.09350,-0.57721000 L 489.13650,2.8230900 L 489.67350,6.4023900 L 491.99950,9.8025900 L 497.18950,9.0867900 L 499.87450,12.666090 L 500.41050,14.992590 L 506.13750,14.634690 L 509.18050,14.276790 L 511.50650,16.424290 L 510.61150,21.614290 L 512.75950,23.224890 L 511.68550,25.909390 L 513.83350,27.519990 L 520.99150,27.341090 L 524.03450,24.477690 L 527.07650,18.750790 L 527.07650,26.625290 L 528.86650,31.994190 L 538.53050,35.573390 L 543.18350,40.942290 L 546.94150,40.763390 L 549.80450,38.257890 L 552.84750,41.658190 L 559.64750,40.942290 L 562.86950,39.152690 L 566.80650,40.942290 L 573.60750,50.069490 L 577.36550,50.427490 L 577.18650,48.458790 L 581.12350,47.921990 L 583.80850,50.785390 L 588.10350,50.248490 L 589.17650,48.458790 L 592.04050,48.816790 L 594.72450,52.038090 L 602.77850,50.606390 L 609.75750,52.753990 L 608.50550,59.733490 L 602.77850,65.639390 L 599.73550,85.683090 L 600.80950,92.663090 L 599.02050,98.390090 L 600.63050,103.04309 L 601.16750,107.15909 L 598.30450,110.73809 L 592.75650,110.91709 L 592.39850,108.41209 L 590.42950,108.94909 L 586.13450,112.52809 L 586.13450,115.39109 L 589.89250,114.49609 L 589.17650,117.18109 L 581.48150,129.52909 L 577.18650,130.24509 L 576.64950,138.65709 L 570.02750,144.92009 L 571.10150,146.88909 L 569.31250,149.75209 L 569.31250,152.25809 L 572.17550,154.04709 L 570.56450,157.62709 L 566.80650,159.41609 L 568.95450,162.28009 L 573.60750,161.02709 L 575.75450,158.70009 L 575.75450,156.73209 L 573.78650,154.76309 L 576.11250,152.79509 L 580.40750,152.43709 L 585.06050,149.21509 L 590.07150,154.76309 L 587.92450,159.59509 L 590.42950,159.77409 L 595.44050,166.75409 L 593.11450,170.33309 L 590.07150,171.76509 L 590.25050,175.16509 L 592.75650,177.13409 L 595.61950,177.49209 L 595.97750,181.96609 L 600.98850,185.72409 L 600.98850,192.16709 L 594.72450,196.64109 L 589.35550,196.64109 L 589.53450,200.75709 L 592.39850,202.36809 L 593.29350,205.76809 L 599.91450,207.73709 L 599.91450,216.14809 L 596.33550,219.01109 L 600.09350,221.87509 L 597.76750,222.77009 L 597.76750,225.27509 L 603.49450,229.57009 L 607.43150,229.57009 L 609.39950,231.18109 L 618.34850,232.07609 L 620.31650,228.49609 L 622.10650,233.32809 L 620.85350,237.62309 L 618.16950,241.38209 L 619.95850,244.78209 L 614.94750,247.46709 L 610.65250,249.43509 L 608.68450,254.08809 L 605.64150,255.69909 L 603.31550,260.35209 L 598.84150,262.85709 L 598.30450,269.83709 L 590.96650,270.91109 L 587.20850,274.66909 L 579.87050,275.92209 L 571.63850,274.49009 L 561.79550,271.80609 L 561.79550,267.86809 L 557.85850,267.68909 L 555.53150,269.12109 L 541.39350,268.76309 L 539.24650,264.82609 L 535.12950,266.07909 L 528.15050,265.72109 L 525.28650,262.67809 L 511.68550,273.05809 L 508.64350,273.59509 L 503.09550,278.78509 L 499.69550,286.12309 L 499.87450,295.60809 L 501.66350,303.12409 L 500.05350,304.01909 L 496.29450,304.73509 L 489.85250,310.28309 L 484.66250,309.92509 L 480.90350,307.41909 L 476.07150,307.95609 L 475.35550,310.10409 L 470.88150,310.10409 L 469.80850,306.88209 L 464.43950,304.19809 L 464.26050,301.15609 L 457.81750,299.00809 L 455.84850,301.15609 L 453.52250,296.68209 L 447.97450,297.03909 L 446.18450,294.17609 L 440.63750,293.46009 L 433.47850,292.20709 L 434.91050,297.93409 L 425.24650,298.65009 L 413.61350,297.39709 L 413.61350,294.71309 L 406.63350,292.74409 L 400.19150,294.53409 L 395.00150,287.73309 L 386.76890,287.73309 L 381.40000,284.33309 L 380.50520,282.18609 L 379.61040,282.00709 L 378.35760,284.87009 L 376.21000,284.51209 L 376.21000,282.18609 L 377.64180,281.29109 L 377.46280,275.56409 L 368.33560,274.13209 L 366.36700,271.26909 L 370.84110,269.83709 L 375.67320,264.11009 L 377.10490,256.59409 L 380.32620,246.03509 L 381.93690,234.58109 L 383.36860,223.12709 L 387.30580,224.02209 L 383.72650,219.36909 L 384.62130,206.12609 L 385.51620,193.77709 L 388.02170,192.34609 L 390.88510,194.85109 L 395.53850,201.11509 L 398.22250,207.91609 L 397.32750,196.64109 L 391.42150,190.55609 L 383.72650,186.44009 L 384.26340,180.71309 L 379.96830,176.23909 L 380.86310,172.83909 L 383.72650,175.34409 L 385.69510,178.56509 L 388.37960,176.77609 L 388.02170,172.12309 L 384.62130,168.72209 L 380.14730,168.72209 L 377.46280,171.04909 L 374.42040,168.36409 L 376.74690,164.60609 L 380.32620,166.39609 L 385.15820,166.39609 L 383.54760,163.71109 L 378.17870,161.02709 L 372.80970,158.87909 L 368.51460,155.30009 L 368.15670,149.93109 L 362.42980,144.56209 L 362.96670,140.98309 L 365.65120,136.68809 L 364.04050,133.64609 L 360.81920,133.10909 L 359.38740,128.63509 L 354.37650,128.99209 L 352.76580,125.77109 L 353.66060,119.68609 L 351.51300,117.89709 L 345.60720,118.97009 L 343.63860,116.82309 L 341.49110,116.82309 L 339.70140,118.97009 L 337.19590,117.89709 L 337.37490,113.78109 L 335.04840,111.27509 L 332.90080,111.81209 L 328.96360,114.49609 L 326.45810,113.95909 L 326.10020,111.27509 L 329.85840,110.91709 L 326.45810,107.51709 L 320.01540,105.72709 L 318.40470,103.93809 L 315.54130,104.11709 L 313.03580,106.98009 L 309.45650,106.62209 L 307.13000,102.50609 L 307.13000,98.748090 L 302.29800,97.316090 L 300.50836,96.779090 L 300.86628,94.810090 L 302.65590,93.379090 L 308.56170,93.200090 L 309.99340,94.273090 L 312.32000,94.095090 L 312.49890,91.231090 L 309.81450,90.515090 L 306.77210,91.052090 L 304.62450,90.515090 L 304.98250,87.831090 L 306.95110,87.652090 L 312.14100,88.189090 L 312.14100,86.041090 L 308.74070,84.609090 L 306.41420,85.862090 L 301.94010,86.220090 L 299.79250,81.746090 L 301.58210,77.808890 L 306.95110,75.840290 L 313.39370,74.408590 L 319.29960,73.692690 L 323.77370,75.303390 L 324.13160,73.513790 L 330.93220,73.513790 L 332.00600,69.218690 L 336.12220,69.039690 L 342.92280,69.934490 L 346.50210,74.587490 L 349.18650,79.240590 L 351.33410,81.746090 L 354.91340,81.030190 L 357.41880,77.271990 L 364.21950,79.419590 L 365.47220,77.450990 L 371.73600,76.377190 L 373.16770,78.703690 L 378.17870,78.882690 L 380.50520,76.377190 L 378.71550,73.513790 L 377.99970,58.838790 L 372.63080,50.785390 L 371.37800,45.058490 L 371.19910,41.300290 L 369.94630,38.615790 L 369.94630,38.615790"
           style="fill:#fffdf3;fill-opacity:1.0000000;stroke:#ffe490;stroke-width:1.0000000;stroke-opacity:1.0000000"
           id="path4932" />
        <path
           d="M 295.16421,79.276490 C 295.16421,80.147490 294.47923,80.854590 293.63535,80.854590 C 292.79148,80.854590 292.10651,80.147490 292.10651,79.276490 C 292.10651,78.405390 292.79148,77.698290 293.63535,77.698290 C 294.47923,77.698290 295.16421,78.405390 295.16421,79.276490 z "
           style="fill:#fffdf3;fill-opacity:1.0000000;stroke:#ffe490;stroke-width:1.0000000;stroke-opacity:1.0000000"
           id="path4934" />
        <path
           d="M 335.30880,121.98609 L 335.60470,125.53609 L 340.93110,125.93109 L 339.55020,123.46509 L 337.57740,121.88709 L 335.40750,122.57709"
           style="fill:#fffdf3;fill-opacity:1.0000000;stroke:#ffe490;stroke-width:1.0000000;stroke-opacity:1.0000000"
           id="path4936" />
        <path
           d="M 332.64570,118.33609 L 332.74430,119.52009 L 334.91430,120.70309 L 336.39380,119.52009 L 335.01290,118.13909 L 332.74430,118.43509"
           style="fill:#fffdf3;fill-opacity:1.0000000;stroke:#ffe490;stroke-width:1.0000000;stroke-opacity:1.0000000"
           id="path4938" />
        <path
           d="M 341.12830,121.29509 L 344.28470,124.84609 L 345.86280,124.55009 L 343.19970,121.09809 L 341.22700,121.29509"
           style="fill:#fffdf3;fill-opacity:1.0000000;stroke:#ffe490;stroke-width:1.0000000;stroke-opacity:1.0000000"
           id="path4940" />
        <path
           d="M 357.79770,135.99209 L 358.09360,138.65509 L 361.54590,139.64109 L 361.84180,136.68209 L 360.26360,135.10409 L 357.60040,135.79409"
           style="fill:#fffdf3;fill-opacity:1.0000000;stroke:#ffe490;stroke-width:1.0000000;stroke-opacity:1.0000000"
           id="path4942" />
        <path
           d="M 354.54270,146.15109 L 355.03590,148.51809 L 358.78410,148.61709 L 357.20590,146.05309 L 354.44410,146.34809"
           style="fill:#fffdf3;fill-opacity:1.0000000;stroke:#ffe490;stroke-width:1.0000000;stroke-opacity:1.0000000"
           id="path4944" />
        <path
           d="M 361.54590,54.716190 L 361.94040,56.787590 L 365.49130,59.746690 L 370.02850,58.760290 L 368.74630,55.603990 L 364.89950,52.447590 L 361.54590,54.222990"
           style="fill:#fffdf3;fill-opacity:1.0000000;stroke:#ffe490;stroke-width:1.0000000;stroke-opacity:1.0000000"
           id="path4946" />
        <path
           d="M 352.17550,44.162290 L 352.17550,48.600890 L 353.65500,49.488490 L 356.91000,49.587190 L 359.08000,46.430890 L 354.93730,44.852690 L 352.37280,44.063590"
           style="fill:#fffdf3;fill-opacity:1.0000000;stroke:#ffe490;stroke-width:1.0000000;stroke-opacity:1.0000000"
           id="path4948" />
        <path
           d="M 364.50490,37.060490 L 364.11040,41.301790 L 366.28040,41.005890 L 365.88580,36.961890 L 364.60360,36.764590"
           style="fill:#fffdf3;fill-opacity:1.0000000;stroke:#ffe490;stroke-width:1.0000000;stroke-opacity:1.0000000"
           id="path4950" />
        <path
           d="M 353.35910,53.828490 C 353.35910,54.372890 352.91720,54.814790 352.37280,54.814790 C 351.82830,54.814790 351.38640,54.372890 351.38640,53.828490 C 351.38640,53.283990 351.82830,52.842090 352.37280,52.842090 C 352.91720,52.842090 353.35910,53.283990 353.35910,53.828490 z "
           style="fill:#fffdf3;fill-opacity:1.0000000;stroke:#ffe490;stroke-width:1.0000000;stroke-opacity:1.0000000"
           id="path4952" />
        <path
           d="M 366.13120,154.35409 C 366.13120,155.11209 365.70730,155.72609 365.18490,155.72609 C 364.66260,155.72609 364.23870,155.11209 364.23870,154.35409 C 364.23870,153.59709 364.66260,152.98209 365.18490,152.98209 C 365.70730,152.98209 366.13120,153.59709 366.13120,154.35409 z "
           style="fill:#fffdf3;fill-opacity:1.0000000;stroke:#ffe490;stroke-width:1.0000000;stroke-opacity:1.0000000"
           id="path4954" />
      </g>
      <path
         d="M 873.15847,74.860676 L 843.20943,104.80971 L 871.58221,120.57235 L 792.76897,143.42819 L 814.83667,178.10601 L 854.24329,190.71613 L 819.56547,235.63967 L 882.61606,273.47002 L 900.74309,230.12274 L 956.70050,241.15659 L 922.02267,167.07216 L 950.39540,120.57235 L 915.71761,108.75037 L 873.15847,74.860676 z "
         style="fill:none;fill-opacity:0.75000000;fill-rule:evenodd;stroke:#ff1313;stroke-width:3.7500000;stroke-linecap:butt;stroke-linejoin:miter;stroke-miterlimit:4.0000000;stroke-dasharray:none;stroke-opacity:1.0000000"
         id="path4956" />
      <g
         transform="matrix(0.928420,0.000000,0.000000,0.928420,733.6591,8.854595)"
         style="fill:#ffe1a2;fill-opacity:1.0000000;stroke:#b66600;stroke-opacity:1.0000000"
         id="g4958">
        <path
           d="M 124.49447 112.39664 A 9.2824831 9.2824831 0 1 1  105.92951,112.39664 A 9.2824831 9.2824831 0 1 1  124.49447 112.39664 z"
           transform="matrix(0.647008,0.000000,0.000000,0.647008,-7.571900,70.74621)"
           style="fill:#ffe1a2;fill-opacity:1.0000000;stroke:#b66600;stroke-width:1.0000000;stroke-miterlimit:4.0000000;stroke-dasharray:none;stroke-dashoffset:0.0000000;stroke-opacity:1.0000000"
           id="path4960" />
        <path
           d="M 124.49447 112.39664 A 9.2824831 9.2824831 0 1 1  105.92951,112.39664 A 9.2824831 9.2824831 0 1 1  124.49447 112.39664 z"
           transform="matrix(0.647008,0.000000,0.000000,0.647008,43.83780,31.80908)"
           style="fill:#ffe1a2;fill-opacity:1.0000000;stroke:#b66600;stroke-width:1.0000000;stroke-miterlimit:4.0000000;stroke-dasharray:none;stroke-dashoffset:0.0000000;stroke-opacity:1.0000000"
           id="path4962" />
        <path
           d="M 124.49447 112.39664 A 9.2824831 9.2824831 0 1 1  105.92951,112.39664 A 9.2824831 9.2824831 0 1 1  124.49447 112.39664 z"
           transform="matrix(0.647008,0.000000,0.000000,0.647008,13.97620,108.4361)"
           style="fill:#ffe1a2;fill-opacity:1.0000000;stroke:#b66600;stroke-width:1.0000000;stroke-miterlimit:4.0000000;stroke-dasharray:none;stroke-dashoffset:0.0000000;stroke-opacity:1.0000000"
           id="path4964" />
        <path
           d="M 124.49447 112.39664 A 9.2824831 9.2824831 0 1 1  105.92951,112.39664 A 9.2824831 9.2824831 0 1 1  124.49447 112.39664 z"
           transform="matrix(0.647008,0.000000,0.000000,0.647008,55.48410,124.7870)"
           style="fill:#ffe1a2;fill-opacity:1.0000000;stroke:#b66600;stroke-width:1.0000000;stroke-miterlimit:4.0000000;stroke-dasharray:none;stroke-dashoffset:0.0000000;stroke-opacity:1.0000000"
           id="path4966" />
        <path
           d="M 124.49447 112.39664 A 9.2824831 9.2824831 0 1 1  105.92951,112.39664 A 9.2824831 9.2824831 0 1 1  124.49447 112.39664 z"
           transform="matrix(0.647008,0.000000,0.000000,0.647008,19.06490,170.6457)"
           style="fill:#ffe1a2;fill-opacity:1.0000000;stroke:#b66600;stroke-width:1.0000000;stroke-miterlimit:4.0000000;stroke-dasharray:none;stroke-dashoffset:0.0000000;stroke-opacity:1.0000000"
           id="path4968" />
        <path
           d="M 124.49447 112.39664 A 9.2824831 9.2824831 0 1 1  105.92951,112.39664 A 9.2824831 9.2824831 0 1 1  124.49447 112.39664 z"
           transform="matrix(0.647008,0.000000,0.000000,0.647008,86.40270,210.0580)"
           style="fill:#ffe1a2;fill-opacity:1.0000000;stroke:#b66600;stroke-width:1.0000000;stroke-miterlimit:4.0000000;stroke-dasharray:none;stroke-dashoffset:0.0000000;stroke-opacity:1.0000000"
           id="path4970" />
        <path
           d="M 124.49447 112.39664 A 9.2824831 9.2824831 0 1 1  105.92951,112.39664 A 9.2824831 9.2824831 0 1 1  124.49447 112.39664 z"
           transform="matrix(0.647008,0.000000,0.000000,0.647008,105.9988,165.3974)"
           style="fill:#ffe1a2;fill-opacity:1.0000000;stroke:#b66600;stroke-width:1.0000000;stroke-miterlimit:4.0000000;stroke-dasharray:none;stroke-dashoffset:0.0000000;stroke-opacity:1.0000000"
           id="path4972" />
        <path
           d="M 124.49447 112.39664 A 9.2824831 9.2824831 0 1 1  105.92951,112.39664 A 9.2824831 9.2824831 0 1 1  124.49447 112.39664 z"
           transform="matrix(0.647008,0.000000,0.000000,0.647008,167.1468,178.1308)"
           style="fill:#ffe1a2;fill-opacity:1.0000000;stroke:#b66600;stroke-width:1.0000000;stroke-miterlimit:4.0000000;stroke-dasharray:none;stroke-dashoffset:0.0000000;stroke-opacity:1.0000000"
           id="path4974" />
        <path
           d="M 124.49447 112.39664 A 9.2824831 9.2824831 0 1 1  105.92951,112.39664 A 9.2824831 9.2824831 0 1 1  124.49447 112.39664 z"
           transform="matrix(0.647008,0.000000,0.000000,0.647008,128.8402,97.55084)"
           style="fill:#ffe1a2;fill-opacity:1.0000000;stroke:#b66600;stroke-width:1.0000000;stroke-miterlimit:4.0000000;stroke-dasharray:none;stroke-dashoffset:0.0000000;stroke-opacity:1.0000000"
           id="path4976" />
        <path
           d="M 124.49447 112.39664 A 9.2824831 9.2824831 0 1 1  105.92951,112.39664 A 9.2824831 9.2824831 0 1 1  124.49447 112.39664 z"
           transform="matrix(0.647008,0.000000,0.000000,0.647008,159.2107,48.24337)"
           style="fill:#ffe1a2;fill-opacity:1.0000000;stroke:#b66600;stroke-width:1.0000000;stroke-miterlimit:4.0000000;stroke-dasharray:none;stroke-dashoffset:0.0000000;stroke-opacity:1.0000000"
           id="path4978" />
        <path
           d="M 124.49447 112.39664 A 9.2824831 9.2824831 0 1 1  105.92951,112.39664 A 9.2824831 9.2824831 0 1 1  124.49447 112.39664 z"
           transform="matrix(0.647008,0.000000,0.000000,0.647008,121.6329,34.80221)"
           style="fill:#ffe1a2;fill-opacity:1.0000000;stroke:#b66600;stroke-width:1.0000000;stroke-miterlimit:4.0000000;stroke-dasharray:none;stroke-dashoffset:0.0000000;stroke-opacity:1.0000000"
           id="path4980" />
        <path
           d="M 124.49447 112.39664 A 9.2824831 9.2824831 0 1 1  105.92951,112.39664 A 9.2824831 9.2824831 0 1 1  124.49447 112.39664 z"
           transform="matrix(0.647008,0.000000,0.000000,0.647008,74.37240,49.14086)"
           style="fill:#ffe1a2;fill-opacity:1.0000000;stroke:#b66600;stroke-width:1.0000000;stroke-miterlimit:4.0000000;stroke-dasharray:none;stroke-dashoffset:0.0000000;stroke-opacity:1.0000000"
           id="path4982" />
        <path
           d="M 124.49447 112.39664 A 9.2824831 9.2824831 0 1 1  105.92951,112.39664 A 9.2824831 9.2824831 0 1 1  124.49447 112.39664 z"
           transform="matrix(0.647008,0.000000,0.000000,0.647008,76.27830,-2.315410)"
           style="fill:#ffe1a2;fill-opacity:1.0000000;stroke:#b66600;stroke-width:1.0000000;stroke-miterlimit:4.0000000;stroke-dasharray:none;stroke-dashoffset:0.0000000;stroke-opacity:1.0000000"
           id="path4984" />
      </g>
    </g>
    <text
       x="134.79086"
       y="331.57727"
       style="font-size:36.000000px;font-style:normal;font-variant:normal;font-weight:bold;font-stretch:normal;text-align:start;line-height:125.00000%;writing-mode:lr-tb;text-anchor:start;fill:#000000;fill-opacity:1.0000000;stroke:none;stroke-width:1.0000000px;stroke-linecap:butt;stroke-linejoin:miter;stroke-opacity:1.0000000;font-family:Times New Roman"
       id="text5326"
       xml:space="preserve"><tspan
         x="134.79086"
         y="331.57727"
         id="tspan5328">1</tspan></text>
    <text
       x="385.84363"
       y="331.57727"
       style="font-size:36.000000px;font-style:normal;font-variant:normal;font-weight:bold;font-stretch:normal;text-align:start;line-height:125.00000%;writing-mode:lr-tb;text-anchor:start;fill:#000000;fill-opacity:1.0000000;stroke:none;stroke-width:1.0000000px;stroke-linecap:butt;stroke-linejoin:miter;stroke-opacity:1.0000000;font-family:Times New Roman"
       id="text5330"
       xml:space="preserve"><tspan
         x="385.84363"
         y="331.57727"
         id="tspan5332">2</tspan></text>
    <text
       x="636.95789"
       y="331.32239"
       style="font-size:36.000000px;font-style:normal;font-variant:normal;font-weight:bold;font-stretch:normal;text-align:start;line-height:125.00000%;writing-mode:lr-tb;text-anchor:start;fill:#000000;fill-opacity:1.0000000;stroke:none;stroke-width:1.0000000px;stroke-linecap:butt;stroke-linejoin:miter;stroke-opacity:1.0000000;font-family:Times New Roman"
       id="text5334"
       xml:space="preserve"><tspan
         x="636.95789"
         y="331.32239"
         id="tspan5336">3</tspan></text>
    <text
       x="887.29877"
       y="331.57727"
       style="font-size:36.000000px;font-style:normal;font-variant:normal;font-weight:bold;font-stretch:normal;text-align:start;line-height:125.00000%;writing-mode:lr-tb;text-anchor:start;fill:#000000;fill-opacity:1.0000000;stroke:none;stroke-width:1.0000000px;stroke-linecap:butt;stroke-linejoin:miter;stroke-opacity:1.0000000;font-family:Times New Roman"
       id="text5338"
       xml:space="preserve"><tspan
         x="887.29877"
         y="331.57727"
         id="tspan5340">4</tspan></text>
  </g>
</svg>
